<svg xmlns="http://www.w3.org/2000/svg" xmlns:xlink="http://www.w3.org/1999/xlink" width="189" zoomAndPan="magnify" viewBox="0 0 141.75 141.750002" height="189" preserveAspectRatio="xMidYMid meet" version="1.0"><path fill="#b399c8" d="M 44.886719 83.574219 C 45.46875 69.015625 51.160156 55.160156 60.910156 44.566406 C 75.382812 28.398438 96.429688 27.664062 105.417969 27.351562 L 106.652344 27.308594 C 107.507812 27.277344 108.363281 27.445312 109.148438 27.800781 C 109.933594 28.15625 110.632812 28.6875 111.1875 29.359375 C 111.746094 30.03125 112.148438 30.820312 112.367188 31.671875 C 112.585938 32.523438 112.613281 33.417969 112.449219 34.28125 C 105.855469 68.585938 80.367188 78.046875 78.253906 78.773438 C 68.285156 82.9375 57.710938 85.375 46.964844 85.984375 C 46.703125 86 46.441406 85.960938 46.195312 85.867188 C 45.949219 85.777344 45.722656 85.636719 45.53125 85.457031 C 45.339844 85.273438 45.183594 85.054688 45.074219 84.8125 C 44.964844 84.566406 44.90625 84.304688 44.898438 84.035156 C 44.894531 83.976562 44.886719 83.820312 44.886719 83.574219 Z M 44.886719 83.574219 " fill-opacity="1" fill-rule="nonzero"/><path fill="#61b2e4" d="M 32.765625 87.816406 C 32.765625 64.324219 46.46875 52.761719 47.21875 52.207031 C 47.433594 52.046875 47.679688 51.933594 47.9375 51.871094 C 48.199219 51.8125 48.464844 51.804688 48.726562 51.855469 C 48.988281 51.902344 49.238281 52.007812 49.460938 52.160156 C 49.679688 52.308594 49.871094 52.503906 50.015625 52.734375 C 53.074219 56.167969 55.015625 60.492188 55.570312 65.113281 C 56.125 69.730469 55.265625 74.410156 53.109375 78.503906 C 70.949219 75.546875 79.773438 82.289062 80.171875 82.601562 C 80.398438 82.78125 80.585938 83.007812 80.71875 83.269531 C 80.851562 83.53125 80.925781 83.820312 80.9375 84.113281 C 80.953125 84.40625 80.902344 84.703125 80.792969 84.976562 C 80.683594 85.246094 80.515625 85.492188 80.300781 85.6875 C 61.097656 103.726562 47.808594 103.425781 41.601562 101.636719 C 41.324219 101.570312 33.558594 99.496094 32.941406 92.011719 C 32.820312 90.578125 32.765625 89.179688 32.765625 87.816406 Z M 32.765625 87.816406 " fill-opacity="1" fill-rule="nonzero"/><path stroke-linecap="round" transform="matrix(0, 0.913483, -0.912898, 0, 141.475779, -1.823692)" fill="none" stroke-linejoin="round" d="M 121.862975 124.195775 C 121.862975 124.195775 77.202194 98.761674 51.006106 52.11252 " stroke="#000000" stroke-width="2" stroke-opacity="1" stroke-miterlimit="4"/><path stroke-linecap="round" transform="matrix(0, 0.913483, -0.912898, 0, 141.475779, -1.823692)" fill="none" stroke-linejoin="round" d="M 99.878958 116.900159 C 73.533202 117.892876 60.948304 102.086421 60.948304 102.086421 " stroke="#000000" stroke-width="2" stroke-opacity="1" stroke-miterlimit="4"/><path stroke-linecap="round" transform="matrix(0, 0.913483, -0.912898, 0, 141.475779, -1.823692)" fill="none" stroke-linejoin="round" d="M 89.500586 91.4575 C 88.26476 75.967687 94.170212 68.466681 94.170212 68.466681 C 113.682577 89.249559 112.733257 103.258854 111.133953 108.825773 " stroke="#000000" stroke-width="2" stroke-opacity="1" stroke-miterlimit="4"/><path stroke-linecap="round" transform="matrix(0, 0.913483, -0.912898, 0, 141.475779, -1.823692)" fill="none" stroke-linejoin="round" d="M 81.739257 102.086421 C 70.732282 99.476259 60.593378 94.170356 52.276142 86.66935 C 34.452881 70.700295 34.461433 47.401392 34.097955 38.064715 C 34.076574 37.452824 34.200584 36.840934 34.452881 36.276112 C 34.709454 35.71129 35.090037 35.214931 35.573249 34.81271 C 36.052185 34.414767 36.616645 34.123798 37.228144 33.969756 C 37.839643 33.811435 38.476799 33.79004 39.09685 33.909851 C 76.616353 41.124167 86.169415 70.028499 86.169415 70.028499 " stroke="#000000" stroke-width="2" stroke-opacity="1" stroke-miterlimit="4"/></svg>