<svg width="159" height="155" viewBox="0 0 159 155" fill="none" xmlns="http://www.w3.org/2000/svg">
<path d="M93.4874 105.803C77.5472 105.166 62.3804 98.934 50.7831 88.2544C33.0861 72.4007 32.2817 49.3425 31.9389 39.4974L31.8914 38.1477C31.8579 37.2077 32.0425 36.2725 32.4312 35.4117C32.8199 34.5509 33.4029 33.7867 34.1367 33.1761C34.8705 32.5654 35.7361 32.1241 36.6692 31.8848C37.6022 31.6456 38.5786 31.6147 39.5256 31.7944C77.0781 39.018 87.4339 66.937 88.232 69.2527C92.7884 80.1743 95.4555 91.7568 96.125 103.529C96.1404 103.815 96.097 104.101 95.9975 104.371C95.898 104.64 95.7444 104.888 95.5455 105.098C95.3467 105.309 95.1067 105.479 94.8396 105.599C94.5725 105.718 94.2837 105.784 93.99 105.793C93.9253 105.796 93.7548 105.803 93.4874 105.803Z" fill="#B399C8"/>
<path d="M98.1284 119.083C72.4113 119.083 59.7571 104.071 59.1467 103.251C58.9712 103.015 58.8466 102.747 58.7805 102.463C58.7144 102.178 58.7082 101.884 58.7622 101.598C58.8162 101.311 58.9294 101.038 59.0948 100.795C59.2603 100.553 59.4745 100.345 59.7246 100.186C63.4833 96.8345 68.2193 94.7078 73.2747 94.1008C78.33 93.4938 83.4538 94.4366 87.9343 96.7984C84.6996 77.255 92.0794 67.5886 92.4199 67.1546C92.6161 66.9051 92.8662 66.7005 93.1523 66.5555C93.4385 66.4104 93.7539 66.3283 94.0761 66.315C94.3986 66.2973 94.7211 66.3509 95.0194 66.4717C95.3176 66.5926 95.584 66.7776 95.7986 67.0129C115.549 88.0488 115.217 102.603 113.26 109.404C113.185 109.707 110.916 118.213 102.724 118.89C101.152 119.022 99.6208 119.083 98.1284 119.083Z" fill="#61B2E4"/>
<path d="M121.864 124.194C121.864 124.194 77.2033 98.763 51.0068 52.1106" stroke="black" stroke-width="2" stroke-linecap="round" stroke-linejoin="round"/>
<path d="M99.8787 116.901C73.5315 117.892 60.95 102.088 60.95 102.088" stroke="black" stroke-width="2" stroke-linecap="round" stroke-linejoin="round"/>
<path d="M89.4993 91.4558C88.2638 75.9677 94.1715 68.4676 94.1715 68.4676C113.681 89.249 112.735 103.26 111.134 108.825" stroke="black" stroke-width="2" stroke-linecap="round" stroke-linejoin="round"/>
<path d="M81.7388 102.088C70.7331 99.4757 60.593 94.1693 52.2779 86.6708C34.4511 70.7002 34.4624 47.4011 34.0987 38.0667C34.0778 37.4515 34.1994 36.8396 34.4544 36.2765C34.7094 35.7134 35.0913 35.2135 35.5717 34.814C36.0521 34.4146 36.6186 34.1257 37.2293 33.969C37.8399 33.8123 38.4789 33.7917 39.0988 33.9088C76.6155 41.1239 86.1692 70.0264 86.1692 70.0264" stroke="black" stroke-width="2" stroke-linecap="round" stroke-linejoin="round"/>
</svg>
