<svg width="72" height="158" viewBox="0 0 72 158" fill="none" xmlns="http://www.w3.org/2000/svg">
<mask id="mask0_72_5506" style="mask-type:luminance" maskUnits="userSpaceOnUse" x="0" y="0" width="72" height="158">
<path d="M0.476807 0H71.4629V157.721H0.476807V0Z" fill="white"/>
</mask>
<g mask="url(#mask0_72_5506)">
<path d="M70.7824 19.5454C70.6435 19.4147 70.5787 19.2188 70.4398 19.0882C70.0231 18.7007 70.0231 18.766 69.4722 18.5701C69.2638 18.5047 68.9212 18.4394 68.7129 18.4394C68.2268 18.3741 67.7453 18.5047 67.3287 18.5701C66.9861 18.6354 66.5694 18.7007 66.2268 18.766C65.4675 18.9619 64.7083 19.1535 63.9444 19.4147C63.1851 19.6107 62.4953 19.9329 61.8055 20.1941C60.9768 20.5207 60.0787 20.8429 59.25 21.2347C57.9398 21.8182 56.625 22.4669 55.2453 23.0504C53.8611 23.7035 52.412 24.2869 51.1713 25.0663C51.0324 25.1316 50.9629 25.1969 50.824 25.2622C51.1018 24.6744 51.4444 24.0257 51.7222 23.4422V23.5076C51.7916 23.3769 51.7916 23.3116 51.8611 23.181C52.0694 22.7282 52.2731 22.271 52.4814 21.8182C52.4814 21.8835 52.412 21.8835 52.412 21.9488C52.412 21.8835 52.4814 21.8182 52.4814 21.8182C53.3796 19.8066 54.3472 17.856 55.037 15.7791C55.3842 14.6732 55.5185 13.5672 55.7268 12.4004C55.7963 11.8822 55.8657 11.425 55.8657 10.9069C55.8657 10.3844 55.8657 9.9316 55.7963 9.41347C55.7268 8.76472 55.6574 8.17692 55.5879 7.52816C55.449 6.74879 55.2453 5.9041 54.4861 5.45128C54.0694 5.19004 53.6574 5.05941 53.1713 5.05941C52.8981 5.05941 52.6203 5.12472 52.412 5.19004C52.1342 5.25535 51.8611 5.38597 51.5833 5.51659C50.9629 5.83879 50.4768 6.29597 49.9953 6.68348C49.5138 7.14065 49.0277 7.52816 48.6157 7.98099C48.1296 8.43816 47.7175 8.89098 47.2314 9.41347C46.8194 9.86629 46.3333 10.3844 45.8518 10.8416C45.3657 11.2944 44.8842 11.7516 44.4027 12.2044C43.9166 12.6616 43.4351 13.1797 43.0185 13.7632C42.6064 14.2857 42.1898 14.8691 41.8472 15.4525C41.5 16.036 41.2222 16.5585 40.949 17.1419C40.324 18.3741 39.7037 19.6107 39.2222 20.9082C38.8055 22.1447 38.324 23.3769 37.9768 24.5482C37.5648 25.7804 37.2175 27.0126 36.8055 28.3144C36.6666 28.6366 36.5972 29.0285 36.4583 29.355V29.2897C36.4583 28.1838 36.3888 27.0779 36.3194 25.9763C36.1805 24.8051 35.9768 23.7035 35.7685 22.5322C35.7685 22.4669 35.7685 22.4669 35.7685 22.4016C35.7685 22.3363 35.7685 22.3363 35.7685 22.3363C35.6296 21.3654 35.4907 20.39 35.3518 19.4147C35.1481 18.5047 35.0092 17.5947 34.8703 16.6238V16.6891C34.8009 16.036 34.7314 15.3219 34.5925 14.6732C34.4537 13.9591 34.3194 13.1797 34.1805 12.4657C34.1111 12.1391 34.0416 11.8169 33.9027 11.4904C33.8333 11.1638 33.6944 10.9069 33.5555 10.5804C33.2824 9.9316 33.074 9.21754 32.7963 8.56878C32.5231 7.92003 32.2453 7.20161 31.8981 6.55286C31.625 5.96941 31.2777 5.38597 30.9351 4.86348C30.5879 4.34535 30.2407 3.76191 29.8981 3.30473C29.4814 2.7866 29.0694 2.26846 28.5833 1.81129C27.8935 1.29316 27.412 0.840333 26.7222 0.51378C26.1666 0.317846 25.5463 0.187225 24.9259 0.187225C24.5787 0.187225 24.2361 0.252535 23.9583 0.317846C23.6805 0.383158 23.4074 0.51378 23.1296 0.57909C22.5787 0.840333 22.0925 1.09722 21.75 1.61971C21.6111 1.8766 21.4722 2.07253 21.3333 2.33377C21.1944 2.59066 21.125 2.7866 21.0555 3.04784C20.8518 3.63128 20.7129 4.21473 20.574 4.86348C20.4351 5.51659 20.2268 6.16534 20.0879 6.8141C19.7453 8.17692 19.537 9.54409 19.3981 10.9069C19.2592 12.2697 19.3287 13.6326 19.3287 14.9344C19.3981 16.3625 19.537 17.7254 19.7453 19.1535C19.8842 20.1288 20.1574 21.1694 20.4351 22.1447C20.7824 23.181 21.125 24.2216 21.5416 25.2622C21.75 25.7151 22.0231 26.1722 22.3009 26.5597C22.5787 27.0126 22.9213 27.4044 23.3379 27.7919C23.6805 28.1838 24.0277 28.5757 24.3703 28.9632C24.6481 29.2897 24.9259 29.5466 25.199 29.8732L25.2685 29.9385C25.8935 30.7179 26.5833 31.5626 27.3425 32.2766C28.1713 32.9907 29 33.7048 29.7592 34.4841C30.037 34.7454 30.2407 34.937 30.5185 35.1982L30.449 35.1329C29.2777 34.4188 27.9629 33.9007 26.7222 33.3782C25.4074 32.8601 24.2361 32.2766 22.9907 31.6279C22.3703 31.3013 21.75 30.9748 21.125 30.6526C20.5046 30.326 19.9537 29.9385 19.3287 29.6119C18.1574 28.8979 16.9814 28.1838 15.8101 27.4697C15.1851 27.1432 14.5648 26.7557 13.9444 26.4291C13.324 26.1069 12.6296 25.8457 12.0092 25.5844C10.7685 25.0663 9.5231 24.4175 8.21292 24.091C6.8981 23.7688 5.58792 23.5729 4.2731 23.5729C3.72218 23.5729 3.17125 23.5076 2.68514 23.5076C2.47681 23.5076 2.20366 23.5076 1.99533 23.5729C1.71755 23.7035 1.51384 23.7688 1.30551 23.9604C1.02773 24.2216 0.749954 24.4829 0.68514 24.8051C0.546252 25.0663 0.476807 25.2622 0.476807 25.4538C0.476807 25.7151 0.476806 25.9763 0.546251 26.2985C0.615695 26.5597 0.685141 26.821 0.749955 27.0779C0.888844 27.5351 1.09718 27.9226 1.30551 28.3797C1.4444 28.7673 1.71755 29.0938 1.92588 29.416C2.47681 30.1344 3.10181 30.8485 3.72218 31.4972C4.2731 32.0807 4.8981 32.6641 5.51847 33.1866C6.13884 33.6394 6.75921 34.0966 7.44903 34.5494C8.00458 34.937 8.62495 35.2635 9.17588 35.6554C10.4907 36.4347 11.8703 37.1488 13.3888 37.6669C14.7731 38.1198 16.1527 38.5116 17.537 38.8382C18.2268 39.0298 18.9166 39.1604 19.6064 39.291C20.2963 39.4216 20.9166 39.5522 21.6111 39.6785C22.4398 39.8091 23.2685 39.9398 24.0972 39.9398C24.8564 40.0051 25.6157 40.0051 26.3055 40.1357C26.6527 40.201 27.0648 40.201 27.412 40.2663C26.375 40.3316 25.3379 40.3969 24.2361 40.3969C23.2685 40.3969 22.2314 40.3969 21.2638 40.3316C20.2268 40.2663 19.2592 40.2663 18.2963 40.201C17.6018 40.0704 16.912 39.9398 16.1527 39.8091C15.324 39.6176 14.4259 39.4869 13.5277 39.4216C13.1851 39.4216 12.8379 39.3563 12.5601 39.3563C12.2175 39.3563 11.8703 39.3563 11.5972 39.4869C11.3888 39.5522 11.1111 39.6176 10.9722 39.7438C10.7685 39.8745 10.6296 40.0051 10.4907 40.1357C10.1435 40.3969 10.1435 40.4622 10.0046 40.8498C9.87033 41.111 9.87033 41.4332 9.87033 41.6944C9.87033 42.021 9.87033 42.2779 10.0046 42.6044C10.1435 42.9266 10.2824 43.3185 10.4907 43.6407C10.8333 44.2285 11.25 44.7466 11.5972 45.2648C12.0787 45.8526 12.5601 46.436 13.1157 47.0195C13.6666 47.5419 14.3564 48.0601 15.0463 48.5129C15.7407 48.9701 16.5 49.2923 17.2592 49.6188C18.5694 50.0717 19.9537 50.2676 21.4027 50.2676C21.4722 50.2676 21.6111 50.2676 21.6805 50.2676C23.199 50.2676 24.7175 49.9454 26.1666 49.6188C27.6851 49.2923 29 48.6435 30.3101 47.9295C30.8657 47.6682 31.3472 47.4113 31.8333 47.0848C31.8333 47.2807 31.8981 47.4766 31.8981 47.6682C31.9675 48.0601 32.1064 48.3866 32.1759 48.7741C32.3148 49.3576 32.4537 49.8801 32.662 50.4635C32.7962 50.851 32.9351 51.1776 33.074 51.5651C33.2129 51.957 33.3518 52.2835 33.5555 52.6057V52.671C33.7638 53.1282 33.9027 53.581 34.0416 54.0338C34.0416 54.2951 34.0416 54.491 34.0416 54.7479C34.0416 56.0498 34.0416 57.4126 34.1805 58.7101C34.3194 60.012 34.4537 61.3095 34.4537 62.6113C34.4537 63.3254 34.5231 63.9742 34.4537 64.6882C34.3888 65.2717 34.3194 65.8551 34.25 66.4429C33.8333 68.781 33.2129 71.1192 32.662 73.392C32.3148 74.6895 32.037 75.9913 31.7638 77.2889C31.4861 78.6517 31.1388 80.0189 30.9351 81.3817C30.449 84.2379 30.037 87.0332 29.6898 89.8895C29.0694 95.4104 28.7222 100.931 28.3796 106.452C28.0324 112.039 27.824 117.56 27.6851 123.146C27.6203 125.941 27.5509 128.797 27.4814 131.588C27.412 134.318 27.3425 136.983 27.2731 139.709C27.2037 142.504 27.2037 145.23 27.2037 148.025C27.2037 150.881 27.3425 153.803 27.412 156.663C27.412 157.116 27.824 157.508 28.3101 157.508C28.7916 157.508 29.1388 157.116 29.2083 156.663C29.2083 155.884 29.2777 155.105 29.2777 154.26C29.4814 148.739 29.6203 143.218 29.8981 137.697C30.037 134.902 30.2407 132.045 30.3101 129.25C30.449 126.525 30.5185 123.795 30.6574 121.069C30.7963 118.339 30.8657 115.548 31.0046 112.818C31.1388 109.962 31.4166 107.166 31.625 104.31C31.8981 101.515 32.1759 98.7892 32.4537 95.9939C32.7268 93.3989 33.0046 90.7995 33.4213 88.1348C33.8333 85.0826 34.3888 82.0304 35.0092 79.0435C35.3518 77.6154 35.6296 76.2482 35.9768 74.8854C36.25 73.5879 36.6666 72.3514 36.9398 71.0538C37.287 69.4951 37.6342 67.9363 37.9074 66.3776C38.1157 65.0148 38.1157 63.6476 38.0463 62.2848C37.9768 60.922 37.8379 59.6201 37.7685 58.2573C37.6342 56.8291 37.5648 55.401 37.2175 54.0338C37.1481 53.8423 37.1481 53.581 37.0787 53.3851C37.0787 53.1892 37.0787 53.0629 37.1481 52.867C37.2175 52.4098 37.2175 51.957 37.287 51.5041C37.3564 51.1123 37.4259 50.6594 37.4259 50.2676C37.6342 50.5288 37.8379 50.7857 38.1157 51.047C38.324 51.3082 38.5324 51.5041 38.7361 51.6957C38.9444 51.957 39.2222 52.1529 39.4953 52.3488C40.0509 52.8016 40.6712 53.1892 41.2916 53.581C41.5694 53.777 41.8472 53.9076 42.1203 54.0338C42.537 54.2298 42.949 54.3604 43.3657 54.4257C43.7083 54.491 44.125 54.5563 44.4722 54.5563C44.537 54.5563 44.537 54.5563 44.6064 54.5563C45.0925 54.5563 45.574 54.491 46.0601 54.3604C46.4027 54.2298 46.8194 54.0992 47.162 53.9685C47.4398 53.8423 47.787 53.6463 48.0601 53.4504C48.4074 53.1892 48.75 52.9976 49.0277 52.671C49.375 52.3488 49.6481 52.0223 49.9259 51.6304C50.2731 51.1123 50.5463 50.5288 50.6851 49.9454C50.7546 49.6841 50.7546 49.4882 50.824 49.227C50.824 49.0354 50.8935 48.8395 50.8935 48.6435C50.8935 48.1254 50.7546 47.6682 50.6157 47.1501C50.4074 46.436 50.1342 45.7873 49.6481 45.2038C49.2361 44.616 48.75 44.1632 48.199 43.6407C47.6481 43.1879 47.0925 42.7351 46.5416 42.3432C46.0601 42.021 45.574 41.6291 45.0925 41.3026C44.6759 41.0457 44.3333 40.7191 43.8472 40.5232C43.7777 40.4622 43.7083 40.4622 43.6435 40.4622C43.8472 40.4622 44.0555 40.4622 44.2638 40.4622C44.7453 40.3969 45.162 40.3969 45.6435 40.3316C47.2314 40.1357 48.75 40.0051 50.3425 39.6785C51.7916 39.3563 53.3101 39.0298 54.7592 38.5769C55.5185 38.3157 56.2824 38.0588 57.0416 37.7323C57.7314 37.471 58.3518 37.1488 58.9722 36.8223C60.287 36.0429 61.4583 35.1329 62.5648 34.1576C63.6018 33.1866 64.6388 32.146 65.537 31.1054C66.0879 30.4566 66.7083 29.7426 67.1944 29.0285C67.6064 28.4451 67.9537 27.8573 68.2962 27.3391C68.7129 26.7557 69.0555 26.1069 69.4027 25.4538C69.75 24.7397 70.0231 23.9604 70.3703 23.2463C70.5787 22.7282 70.8518 22.1447 71.0601 21.6222C71.1296 21.3654 71.199 21.1694 71.199 20.9082C71.1296 20.3247 70.9907 19.8066 70.7824 19.5454ZM37.0787 31.6279C37.4953 30.3913 37.9074 29.0938 38.3935 27.8573C39.3611 25.4538 40.2592 23.1157 41.2916 20.7776C41.7777 19.676 42.3287 18.6354 42.949 17.5947C43.5046 16.5585 44.0555 15.5832 44.8148 14.6732C44.8148 14.6732 44.8148 14.7385 44.7453 14.7385L44.8148 14.6732C44.8148 14.6732 44.8148 14.6732 44.8842 14.6079L44.9537 14.5425C44.9537 14.5425 44.9537 14.6079 44.8842 14.6079C45.4351 13.9591 45.9907 13.3757 46.6111 12.7879C47.2314 12.2044 47.8564 11.621 48.4074 10.9722C49.0277 10.3235 49.6481 9.67036 50.2731 9.08692C50.6157 8.76472 50.8935 8.50347 51.2407 8.17692C51.5138 7.92003 51.7916 7.65879 52.0694 7.39754C52.2731 7.26692 52.4814 7.14065 52.6898 7.07534C52.8287 7.01003 52.8981 7.01003 53.0324 6.94472H53.1018H53.1713C53.2407 7.52816 53.1712 8.17692 53.1018 8.76472C53.0324 9.41347 53.0324 9.99691 52.9629 10.6457C52.8287 11.2944 52.7592 11.8822 52.6203 12.531C52.4814 13.245 52.3425 13.8938 52.1342 14.6079C51.9305 15.2566 51.6527 15.9707 51.375 16.6238C51.1713 17.2072 50.8935 17.7254 50.6851 18.3088C50.2731 19.2188 49.8564 20.1288 49.4444 21.0388C49.5138 20.9082 49.5138 20.8429 49.5787 20.7122C49.375 21.1694 49.1666 21.5569 49.0277 22.0141C48.4768 23.181 47.9213 24.2869 47.2314 25.3929C46.9583 25.8457 46.6111 26.3638 46.2638 26.821C45.9213 27.3391 45.574 27.8573 45.162 28.3144C44.6759 28.8979 44.125 29.416 43.6435 29.9385C43.0879 30.4566 42.6064 30.9748 41.9814 31.4319C41.4305 31.8194 40.8796 32.2113 40.324 32.6641C39.8425 33.056 39.3611 33.5088 38.8055 33.9007C38.3935 34.2229 37.9074 34.4841 37.4259 34.7454C36.875 35.0023 36.3194 35.1982 35.7685 35.4594C35.7685 35.3941 35.7685 35.3288 35.8379 35.2635C36.1805 34.0966 36.6666 32.8601 37.0787 31.6279ZM28.3796 32.0154C27.824 31.4972 27.3425 30.9748 26.8564 30.3913C26.5833 30.0691 26.375 29.7426 26.1666 29.416C25.9629 29.0938 25.6851 28.7673 25.4768 28.5104C25.4768 28.5757 25.5463 28.5757 25.5463 28.6366C25.4768 28.5757 25.4074 28.5104 25.3379 28.4451C25.2685 28.3797 25.2685 28.3797 25.2685 28.3144L25.3379 28.3797C25.2685 28.3144 25.199 28.2491 25.1296 28.1185C25.1296 28.1185 25.1296 28.1185 25.0648 28.0532C24.787 27.731 24.5092 27.4044 24.2361 27.0779C23.9583 26.7557 23.75 26.4944 23.5416 26.1722C23.3379 25.911 23.199 25.5844 23.0601 25.2622C22.6435 24.2869 22.3009 23.2463 22.0231 22.21C21.8842 21.6222 21.6805 21.0388 21.5416 20.4554C21.4027 19.9329 21.3333 19.48 21.2638 18.9619C20.8518 15.6485 20.7824 12.2697 21.1944 8.95629C21.3333 7.92003 21.5416 6.87941 21.75 5.83879C21.8842 5.25535 21.9537 4.73721 22.0925 4.21473C22.162 3.76191 22.3009 3.30473 22.5092 2.85191C22.6435 2.59066 22.7824 2.33377 22.9213 2.07253C22.9907 2.00722 23.0601 1.94191 23.1296 1.8766C23.3379 1.74598 23.5416 1.61971 23.8194 1.48909C23.8194 1.48909 23.8194 1.48909 23.8888 1.48909C24.0972 1.42378 24.3703 1.35847 24.5787 1.29316C24.8564 1.29316 25.0648 1.22784 25.3379 1.29316C25.6157 1.35847 25.824 1.35847 26.0277 1.48909C26.3055 1.61971 26.5138 1.74598 26.7222 1.8766C27.2731 2.33377 27.7546 2.85191 28.1713 3.37004C28.5833 3.89253 29 4.47597 29.3425 5.05941C29.6898 5.64286 29.9675 6.29597 30.3101 6.94472C30.8657 8.17692 31.2083 9.41347 31.625 10.711C31.8333 11.2944 31.9675 11.8822 32.1064 12.531C32.2453 13.1797 32.3148 13.8285 32.4537 14.4772C32.5925 15.3219 32.5925 16.1666 32.7268 16.946C32.8657 18.1825 33.0046 19.48 33.1435 20.7122C33.2824 22.0141 33.3518 23.3116 33.4907 24.6744C33.625 25.9763 33.6944 27.2738 33.7638 28.5757C33.7638 29.2244 33.7638 29.8732 33.7638 30.5219C33.7638 31.0401 33.8333 31.4972 33.7638 32.0154C33.625 32.7948 33.5555 33.6394 33.5555 34.4188C33.5555 35.1982 33.4907 35.9776 33.5555 36.7569C33.074 36.3694 32.7268 35.9776 32.3148 35.5901C31.6944 35.0023 31.1388 34.3535 30.5185 33.8354C29.6898 33.1866 29.0694 32.5988 28.3796 32.0154ZM26.0972 37.3404C25.4768 37.2794 24.8564 37.2141 24.2361 37.0835C22.3703 36.8223 20.574 36.3041 18.8472 35.7163C17.949 35.3941 17.0509 35.0676 16.0833 34.8107C15.2546 34.5494 14.4259 34.2229 13.5277 33.9007C12.287 33.3782 11.0416 32.7948 9.87033 32.2113C8.6944 31.5626 7.44903 30.9748 6.34718 30.1954C5.31014 29.416 4.2731 28.5757 3.4444 27.6004C3.23607 27.2738 2.96292 26.821 2.75458 26.4291C2.68514 26.1722 2.54625 25.911 2.47681 25.6497C2.47681 25.5191 2.47681 25.3929 2.47681 25.2622C2.47681 25.1969 2.47681 25.1969 2.47681 25.1316C2.47681 25.0663 2.54625 25.0663 2.54625 25.001L2.6157 24.9357C2.89347 24.8704 3.23607 24.8051 3.58329 24.7397C3.99995 24.6744 4.34255 24.6744 4.68977 24.6744C5.31014 24.6744 5.86107 24.7397 6.48607 24.8051C6.96755 24.8704 7.44903 24.9357 7.8657 25.0663C8.34718 25.1969 8.83329 25.3275 9.31477 25.5191C10.4213 25.9763 11.4583 26.4291 12.4907 26.8863C13.5972 27.3391 14.6342 27.9226 15.6713 28.5104C16.6388 29.0938 17.6018 29.6772 18.5694 30.2607C19.537 30.9138 20.574 31.4972 21.6111 32.0154C22.8518 32.5988 24.0972 33.2519 25.3379 33.8354C25.9629 34.1576 26.6527 34.4188 27.2731 34.6801C27.8935 34.937 28.5138 35.2635 29.0694 35.5901C30.1064 36.1735 31.1388 36.8223 32.1759 37.4057C31.625 37.471 31.0694 37.5363 30.5185 37.5363C29.6203 37.6016 28.6527 37.6016 27.7546 37.5363C27.6851 37.5363 27.6203 37.5363 27.5509 37.5363C27.2037 37.5363 26.6527 37.4057 26.0972 37.3404ZM27.824 45.7873C27.1342 46.0441 26.5138 46.2401 25.7546 46.436C25.0648 46.5666 24.4398 46.6973 23.75 46.7626H23.6805C23.6805 46.7626 23.6805 46.7626 23.6111 46.7626C23.6111 46.7626 23.6111 46.7626 23.5416 46.7626H23.4722C22.9907 46.8235 22.5787 46.8235 22.0925 46.8235C21.6111 46.8235 21.125 46.8235 20.574 46.7626C19.8842 46.6319 19.1944 46.5013 18.5 46.2401C18.0879 46.0441 17.6018 45.8526 17.2592 45.6566C16.7731 45.3954 16.3611 45.1385 15.875 44.812C15.0463 44.2285 14.3564 43.5144 13.6666 42.8004C13.5972 42.7351 13.5972 42.6698 13.5277 42.6044C13.8055 42.6044 14.1527 42.6698 14.4259 42.6698C15.324 42.8004 16.2222 42.9266 17.1203 42.992C18.0879 43.0573 19.0555 43.0573 20.0879 42.992C21.4722 42.9266 22.9213 42.8004 24.3009 42.6698C25.6851 42.4738 26.9953 42.2779 28.3796 42.021C29.1388 41.8904 29.8287 41.7598 30.5879 41.5638C31.2777 41.3679 31.9675 41.111 32.662 40.7844C33.1435 40.5232 33.6944 40.3316 34.1805 40.0051C34.1805 40.0704 34.1805 40.0704 34.1805 40.1357C34.1111 40.3316 34.1111 40.5232 34.0416 40.7191C33.9027 41.0457 33.6944 41.3679 33.4907 41.6944C33.2129 42.082 33.0046 42.4738 32.7268 42.8613C32.5231 43.1226 32.2453 43.3185 31.9675 43.5144C30.6574 44.4854 29.2777 45.1385 27.824 45.7873ZM44.8842 43.3838C45.8518 44.0979 46.75 44.8773 47.5092 45.7873C47.787 46.1095 47.9907 46.5013 48.199 46.8888C48.3379 47.346 48.4768 47.7335 48.6157 48.1907C48.6157 48.3213 48.6157 48.5129 48.6157 48.6435C48.6157 48.7741 48.5463 48.9048 48.5463 49.0354C48.4074 49.227 48.2685 49.4882 48.1296 49.6841C47.9213 49.9454 47.7175 50.137 47.5092 50.3329C47.0277 50.6594 46.6111 50.9163 46.0601 51.1123C45.7129 51.2429 45.4351 51.3082 45.0925 51.3735C44.8148 51.3735 44.537 51.3735 44.2638 51.3735C44.125 51.3735 43.9861 51.3082 43.8472 51.3082C43.4351 51.1123 43.0185 50.9163 42.6064 50.7248C42.1203 50.4635 41.6388 50.2023 41.2222 49.9454C40.6712 49.4882 40.1203 48.9701 39.6342 48.4476C39.0833 47.9295 38.6018 47.346 38.1157 46.7626C37.7685 46.3054 37.4259 45.9179 37.0787 45.4607C36.7361 45.0079 36.4583 44.4854 36.25 43.9673C36.1805 43.7713 36.1111 43.5798 36.0463 43.3838C36.1805 43.1226 36.3888 42.8613 36.5277 42.5391C36.7361 42.021 36.9398 41.5638 37.0787 41.0457C37.1481 40.6538 37.287 40.2663 37.4953 39.8745C37.4953 39.8745 37.4953 39.8745 37.4953 39.8091C38.324 39.9398 39.0833 40.1357 39.8425 40.3969C40.2592 40.5885 40.6712 40.7844 41.0879 41.0457C41.5694 41.3026 42.0509 41.5638 42.537 41.8251C42.7453 41.9557 43.0185 42.021 43.2268 42.1473C43.4351 42.2779 43.6435 42.4085 43.8472 42.5391C44.0555 42.8004 44.4722 43.0573 44.8842 43.3838ZM63.8101 26.821C63.4629 27.4044 62.9814 27.9879 62.5648 28.5757C62.2175 29.0285 61.875 29.4813 61.4583 29.9385C60.8379 30.7179 60.2175 31.4972 59.5277 32.2113C58.9027 32.8601 58.2129 33.4435 57.5231 34.0313C56.4166 34.7454 55.2453 35.3288 54.0694 35.8469C52.9629 36.2388 51.8611 36.561 50.6851 36.8876C49.5787 37.2141 48.4768 37.471 47.3703 37.6016C46.6805 37.6669 46.0601 37.7323 45.3657 37.8629C44.6064 37.9282 43.7777 38.0588 43.0185 37.9935C42.3981 37.8629 41.7777 37.7323 41.1527 37.5363C40.8101 37.471 40.4629 37.3404 40.0509 37.2794C40.1203 37.2794 40.1203 37.2141 40.1898 37.2141C40.6713 36.8876 41.1527 36.561 41.5694 36.1735C42.4675 35.4594 43.2963 34.7454 44.1944 34.0313C45.0925 33.3172 45.9213 32.6641 46.8194 31.9501C47.6481 31.3013 48.4074 30.5872 49.3055 29.9385C49.2361 30.0038 49.1666 30.0038 49.0972 30.0691C49.2361 29.9385 49.375 29.8732 49.5138 29.7426C49.4444 29.8079 49.375 29.8732 49.3055 29.8732C50.5463 28.9632 51.8611 28.3144 53.2407 27.731C54.4166 27.2738 55.6574 26.8863 56.9027 26.4291C58.1435 25.9763 59.3888 25.5191 60.5601 25.001C60.4953 25.001 60.4953 25.0663 60.4259 25.0663C62.0138 24.4829 63.6712 23.9604 65.3287 23.5076C65.4675 23.4422 65.6712 23.4422 65.8101 23.3769C65.1898 24.6135 64.5 25.7151 63.8101 26.821Z" fill="#322C53"/>
</g>
</svg>
