<svg width="109" height="109" viewBox="0 0 109 109" fill="none" xmlns="http://www.w3.org/2000/svg">
<path d="M33.4167 18.0645C28.07 18.2688 22.6723 20.0891 18.1636 22.9396C8.63876 29.2385 6.16368 46.2277 16.848 52.5896C23.7056 56.8699 32.5306 52.1961 34.3659 44.7138C34.4199 44.6597 34.474 44.6086 34.5311 44.5576C39.3941 52.3103 40.9321 62.1055 36.8259 70.522C35.24 74.2226 33.0292 77.5988 30.8455 80.963C29.695 82.6601 28.5266 84.3482 27.3822 86.0844C26.5501 87.0636 25.9524 88.7818 27.3942 89.6048C31.1729 91.2058 35.2339 88.2861 38.1386 86.0423C42.9806 81.9873 46.0805 76.2591 48.6487 70.5791C50.8925 65.5117 53.1513 60.3933 54.4549 54.9896C56.5996 45.8882 56.4524 35.8137 51.5022 27.6195C47.7265 21.5459 40.4755 18.0675 33.4167 18.0645ZM51.4302 33.9844C50.9736 33.0502 50.6282 32.056 50.1566 31.1278C50.1506 31.0167 50.1415 30.9056 50.1355 30.7914C50.8264 31.7076 51.34 32.7138 51.4302 33.9844ZM49.8802 44.4885C49.8742 44.4374 49.8562 44.3894 49.8292 44.3473C50.1415 42.6923 50.2166 40.9891 51.0667 39.4993C51.7936 41.7521 50.3007 44.068 49.7811 46.2307C49.9012 45.66 49.9823 45.0712 49.8802 44.4885ZM38.8264 22.5732C39.1809 22.7744 39.4843 23.0357 39.7366 23.3571C39.5654 23.3782 39.3971 23.4202 39.2379 23.4833C39.1598 23.3812 39.0577 23.3421 38.9286 23.3752C38.8955 23.1078 38.8625 22.8405 38.8264 22.5732ZM38.8865 40.067C38.7934 40.1241 38.7003 40.1781 38.6042 40.2352C38.5801 40.1811 38.5531 40.1301 38.5261 40.079C38.6102 39.9318 38.6943 39.7876 38.7814 39.6435C38.7904 39.6344 38.7964 39.6224 38.8054 39.6134C38.8294 39.7636 38.8565 39.9168 38.8865 40.067ZM39.5383 24.3394C39.7336 24.3844 39.9288 24.4295 40.121 24.4865C40.106 24.6067 40.076 24.7268 40.0339 24.841C39.8207 24.6938 39.6044 24.5496 39.3911 24.4024C39.4422 24.3844 39.4903 24.3604 39.5383 24.3394ZM39.9048 26.8475C39.9468 26.9076 39.9859 26.9706 40.0219 27.0337C40.052 27.0848 40.079 27.1389 40.109 27.1899C40.0159 27.3131 39.9198 27.4392 39.8267 27.5624C39.7095 27.7126 39.5954 27.8658 39.4782 28.0189C39.4632 27.8718 39.4452 27.7246 39.4302 27.5774C39.5894 27.3341 39.7486 27.0938 39.9048 26.8475ZM40.3854 29.4698C40.3613 29.623 40.3463 29.7761 40.3253 29.9263C40.1901 30.2627 40.058 30.5962 39.9228 30.9326C39.8898 30.9746 39.8567 31.0167 39.8267 31.0587C39.8237 31.0437 39.8237 31.0287 39.8207 31.0167C40.0129 30.503 40.1961 29.9864 40.3854 29.4698ZM40.1301 41.2294C40.1541 41.4036 40.1811 41.5779 40.2052 41.7551C40.2412 42.0194 40.2923 42.2777 40.3343 42.5421C40.2292 42.6112 40.1271 42.6772 40.0189 42.7403C39.9859 42.5901 39.9498 42.4429 39.9138 42.2928C39.8777 42.1336 39.8417 41.9714 39.7996 41.8092C39.9078 41.6139 40.0189 41.4217 40.1301 41.2294ZM40.4304 43.5603C40.4605 43.5393 40.4935 43.5183 40.5235 43.4973C40.5416 43.5483 40.5626 43.6024 40.5836 43.6535C40.6497 43.7976 40.7608 43.8938 40.914 43.9388C40.9411 44.1851 40.8149 44.3954 40.7248 44.6147C40.5716 44.2993 40.4214 43.9839 40.2712 43.6655C40.3223 43.6324 40.3764 43.5964 40.4304 43.5603ZM40.893 52.8599C41.0432 52.8629 41.1904 52.8479 41.3346 52.8149C41.6259 54.6772 41.6019 56.5726 41.665 58.4559C41.5869 57.9483 41.5058 57.4437 41.4187 56.939C41.2294 55.5693 40.8209 54.2236 40.7669 52.8419C40.8059 52.8509 40.851 52.8569 40.893 52.8599ZM41.1513 36.6908C41.1363 36.4204 41.1243 36.1501 41.1153 35.8768C41.1363 35.8437 41.1603 35.8077 41.1814 35.7716C41.1724 36.078 41.1633 36.3844 41.1513 36.6908ZM41.1784 51.9348C41.1603 51.9378 41.1393 51.9408 41.1213 51.9438C41.1153 51.9468 41.1093 51.9468 41.1033 51.9468C41.0973 51.8597 41.1093 51.7756 41.1363 51.6945C41.1513 51.7756 41.1664 51.8537 41.1784 51.9348ZM41.0762 33.639V33.1884C41.0762 33.0022 41.0732 32.8249 41.0792 32.6387C41.0883 32.4765 41.0943 32.3113 41.1033 32.1461C41.1664 32.074 41.2264 31.9989 41.2865 31.9268C41.2775 32.4074 41.2685 32.885 41.2565 33.3656C41.1964 33.4557 41.1363 33.5488 41.0762 33.639ZM41.3225 25.2315C41.3256 25.2255 41.3316 25.2195 41.3376 25.2165V25.2855C41.3316 25.2675 41.3256 25.2495 41.3225 25.2315ZM41.6289 71.4592C41.7431 70.531 41.9353 69.6118 42.4339 68.8038C42.5271 69.0622 42.518 69.4857 42.8635 69.5157C42.455 70.2456 42.0314 70.9605 41.5929 71.6724C41.6049 71.6003 41.6169 71.5312 41.6289 71.4592ZM44.2722 34.3869C44.2963 34.3508 44.3173 34.3148 44.3413 34.2818C44.3353 34.4259 44.3293 34.5671 44.3203 34.7113C44.2242 34.8495 44.128 34.9846 44.0199 35.1138C43.9989 35.1408 43.9749 35.1709 43.9508 35.1979C43.9688 35.0687 43.9839 34.9396 44.0019 34.8104C44.095 34.6662 44.1851 34.5221 44.2782 34.3779C44.2752 34.3809 44.2722 34.3839 44.2722 34.3869ZM44.101 53.6469C44.089 53.4607 44.074 53.2715 44.062 53.0822C44.0259 52.5566 43.9899 52.0249 43.9538 51.4932C43.9418 51.31 43.9298 51.1298 43.9148 50.9466C44.2572 50.6011 44.5846 50.2437 44.9 49.8742C44.8279 51.1688 44.4104 52.3974 44.101 53.6469ZM44.8279 57.678C44.7769 57.8522 44.7228 58.0264 44.6717 58.1976C44.6988 58.0324 44.7228 57.8672 44.7498 57.699C44.7769 57.693 44.8009 57.687 44.8279 57.678ZM44.9631 65.2564C44.3713 66.4098 43.8427 67.7075 43.0978 68.7978C42.7553 66.9625 44.4675 65.4366 45.1643 63.8266C45.0802 64.2922 44.7859 64.7848 44.9631 65.2564ZM42.8545 51.9168C43.0317 54.8544 43.269 57.6689 43.5153 60.6306C42.7343 57.9092 42.521 55.1007 42.3618 52.2892C42.5301 52.1691 42.6923 52.0459 42.8545 51.9168ZM42.2627 51.3521C42.2056 50.8294 42.1486 50.3038 42.0915 49.7811C42.0915 49.7811 42.0915 49.7781 42.0915 49.7751C42.1816 49.8622 42.2898 49.9253 42.4099 49.9613C42.518 49.9884 42.6262 49.9944 42.7373 49.9763V50.0214C42.7553 50.3248 42.7734 50.6312 42.7914 50.9345C42.6202 51.0787 42.4429 51.2169 42.2627 51.3521ZM43.0377 30.7313C42.9626 30.8395 42.8845 30.9506 42.8094 31.0617C42.7673 30.8995 42.7133 30.7403 42.6622 30.5781C42.6382 30.494 42.6142 30.4099 42.5871 30.3228C42.8124 30.0405 43.0377 29.7581 43.263 29.4758C43.275 29.4577 43.29 29.4427 43.302 29.4247C43.323 29.5088 43.3471 29.5929 43.3711 29.674C43.4101 29.8152 43.4492 29.9564 43.4882 30.0975C43.3351 30.3078 43.1879 30.5181 43.0377 30.7313ZM43.4672 32.7438C43.4071 33.0622 43.4342 33.4197 43.326 33.7201C43.296 33.4888 43.263 33.2635 43.2239 33.0352C43.308 32.9391 43.3891 32.843 43.4672 32.7438ZM43.6865 42.7253C43.7195 42.1005 43.7766 41.4817 43.8697 40.866C43.8817 40.8359 43.8968 40.8089 43.9118 40.7819C43.8757 41.1633 43.8397 41.5478 43.8066 41.9293C43.7616 42.4219 43.7135 42.9145 43.6655 43.4041C43.6685 43.1729 43.6745 42.9446 43.6865 42.7163C43.6865 42.7193 43.6865 42.7223 43.6865 42.7253ZM43.4882 38.7694C43.5724 38.1115 43.6595 37.4537 43.7436 36.7959C43.9148 36.5856 44.083 36.3784 44.2542 36.1681C44.2692 37.1323 44.128 38.0154 43.4882 38.7694ZM42.6953 60.153C42.7433 60.3843 42.7974 60.6126 42.8635 60.8379C42.8815 60.913 42.8995 60.9851 42.9205 61.0572C42.8484 61.0782 42.7974 61.1233 42.7613 61.1863C42.7313 61.2494 42.6983 61.3095 42.6652 61.3726C42.6802 61.0121 42.6953 60.6487 42.6953 60.2882C42.6953 60.2432 42.6953 60.1981 42.6953 60.153ZM42.4039 65.6859C42.461 64.4154 43.0046 63.2409 43.263 62.0003C43.269 62.0064 43.272 62.0124 43.275 62.0184C43.314 62.0875 43.3591 62.1535 43.4101 62.2166C43.1578 63.4001 42.7613 64.5595 42.4009 65.713C42.4009 65.704 42.4009 65.695 42.4039 65.6859ZM43.8457 49.9433C43.8427 49.8652 43.8367 49.7871 43.8337 49.709C43.8097 49.2554 43.7826 48.8019 43.7586 48.3513C44.7198 47.6184 44.1821 45.5698 45.1553 44.7378C45.1583 46.0174 45.1553 47.306 45.0592 48.5766C44.6717 49.0542 44.2752 49.4987 43.8457 49.9433ZM44.122 26.5711C43.8577 26.5501 43.6114 26.6913 43.4162 26.8595C43.2389 26.478 42.9566 26.0485 42.5421 25.9163C42.5901 25.7992 42.6352 25.682 42.6832 25.5649C43.1608 25.8262 43.6444 26.0785 44.125 26.3338C44.122 26.4149 44.122 26.496 44.122 26.5711ZM42.5451 34.9306L42.488 35.0207C42.458 34.7023 42.4339 34.3839 42.4099 34.0685C42.4099 34.0715 42.4099 34.0715 42.4099 34.0745C42.4099 34.0535 42.4099 34.0325 42.4069 34.0114C42.4099 34.0114 42.4099 34.0084 42.4099 34.0084C42.4339 34.1586 42.455 34.3118 42.479 34.462C42.503 34.6182 42.5271 34.7744 42.5451 34.9306ZM42.3438 27.9409L42.3408 27.9439L42.3378 27.7126C42.3829 27.7396 42.4279 27.7696 42.473 27.7967C42.4279 27.8447 42.3859 27.8928 42.3438 27.9409ZM42.5691 38.1085C42.6051 38.1266 42.6442 38.1416 42.6832 38.1596C42.7253 38.1746 42.7673 38.1836 42.8124 38.1836C42.7613 38.6012 42.7103 39.0157 42.6592 39.4332C42.6051 39.8627 42.5511 40.2923 42.497 40.7218C42.3558 40.866 42.2117 41.0042 42.0645 41.1423C42.1065 40.2652 42.1456 39.3851 42.1816 38.508C42.3108 38.3759 42.4429 38.2497 42.5691 38.1085ZM42.5991 72.159C43.6414 70.4409 44.7648 68.7468 45.729 66.9806C45.0292 69.0501 43.8247 70.8073 42.4159 72.4624C42.479 72.3603 42.5391 72.2612 42.5991 72.159ZM44.4795 63.7365C45.1253 62.0935 45.705 60.4204 46.2817 58.7533C46.3839 58.4649 46.477 58.1736 46.5701 57.8792C46.5401 58.0084 46.519 58.1375 46.504 58.2697C46.492 58.3808 46.534 58.4649 46.6302 58.522C46.2006 60.3993 45.5909 62.1505 44.4795 63.7365ZM46.4259 54.4489C46.525 54.1215 46.6212 53.7971 46.7173 53.4697C47.1618 51.9798 47.6274 50.493 48.099 49.0121C47.6154 50.8354 47.1318 52.7037 46.4259 54.4489ZM47.0417 50.3098C46.2277 52.3553 46.0474 54.7974 44.909 56.6387C44.918 56.5606 44.927 56.4795 44.9361 56.4044C44.9811 56.0409 45.0292 55.6715 45.0712 55.308C45.9453 51.4782 47.1738 47.7656 48.7628 44.1731C48.5586 46.2968 47.5763 48.2522 47.0417 50.3098ZM48.1591 34.7083C48.108 35.5884 47.8797 36.3513 47.324 37.0422C47.3511 36.7478 47.3811 36.4505 47.4051 36.1531C47.4111 35.5914 47.9188 35.1919 48.1591 34.7083ZM47.7416 31.7706C47.7596 31.5153 47.7776 31.26 47.7956 31.0047C47.9278 30.7644 48.0449 30.5151 48.1441 30.2567C48.1591 30.2928 48.1741 30.3288 48.1921 30.3649C48.2552 30.5691 48.3153 30.7764 48.3783 30.9806C48.1621 31.227 47.9398 31.5003 47.7416 31.7706ZM48.1681 40.3613C48.2192 40.3734 48.2732 40.3794 48.3303 40.3794C48.4474 40.3764 48.5556 40.3463 48.6607 40.2893C48.2192 41.3676 47.7716 42.4429 47.3631 43.5333C47.3871 43.3891 47.4141 43.2479 47.4382 43.1038C47.6605 42.1816 47.5884 41.1483 48.1681 40.3613ZM47.3901 39.7936C47.3601 39.9739 47.33 40.1571 47.3 40.3403C47.1678 40.5656 47.0327 40.7909 46.8975 41.0192C46.9996 40.5205 46.9065 39.9528 47.1648 39.5083C47.1799 39.5323 47.1979 39.5563 47.2189 39.5804C47.276 39.6525 47.33 39.7215 47.3901 39.7936ZM46.3028 33.3716C46.2397 33.8462 46.1496 34.2968 45.8522 34.6873C45.8011 34.5401 45.7501 34.3959 45.699 34.2517C45.9033 33.9604 46.1015 33.666 46.3028 33.3716ZM45.6059 32.87C45.6119 32.7018 45.6149 32.5336 45.6179 32.3684C45.9693 31.8577 46.3418 31.3561 46.7353 30.8755C46.5461 31.6084 45.9663 32.2062 45.6059 32.87ZM46.6932 42.7493C46.7293 42.5601 46.9005 42.4189 46.9906 42.2507C46.7503 43.6985 46.501 45.1493 46.2427 46.5941C46.2096 46.6963 46.1736 46.7984 46.1406 46.9005C46.3418 45.5188 46.528 44.1341 46.6932 42.7493ZM47.0116 28.9411C46.9996 29.0222 46.9846 29.1063 46.9726 29.1874C46.4259 29.5148 46.0324 30.0405 45.6239 30.5211C45.6209 30.3198 45.6209 30.1186 45.6179 29.9173C46.0745 29.2745 46.5671 28.6587 46.9876 27.9949C47.0927 28.1842 47.1949 28.3704 47.294 28.5626C47.1318 28.6347 47.0357 28.7609 47.0116 28.9411ZM45.5308 27.4362C45.5248 27.3101 45.5188 27.1869 45.5128 27.0608C45.5969 27.1028 45.684 27.1449 45.7711 27.1899C45.69 27.271 45.6059 27.3521 45.5308 27.4362ZM48.1921 38.7303C48.2612 37.664 48.6547 36.7989 49.3185 35.9609C49.3095 36.9731 48.5856 37.8112 48.1921 38.7303ZM48.3844 28.824C48.5375 28.9862 48.6907 29.1454 48.8439 29.3015C48.8409 29.4668 48.8409 29.632 48.8259 29.7942C48.6937 29.4938 48.5556 29.1994 48.4114 28.9081C48.4024 28.881 48.3934 28.854 48.3844 28.824ZM49.1023 33.2034C49.1593 33.3746 49.2194 33.5458 49.2765 33.7141C49.2855 33.9213 49.2945 34.1256 49.2975 34.3328C49.2705 34.3599 49.2434 34.3869 49.2164 34.4139C49.0782 34.5611 48.9491 34.7113 48.8259 34.8705C48.916 34.3208 49.0031 33.7681 49.0932 33.2184C49.0962 33.2154 49.0992 33.2094 49.1023 33.2034ZM48.3723 27.232C48.6126 27.5594 48.8409 27.8928 49.0632 28.2322C48.6397 27.9559 48.2252 27.6735 47.9308 27.271C47.8707 27.2079 47.7986 27.1719 47.7115 27.1599C47.6244 27.1509 47.5463 27.1689 47.4742 27.2169C46.7894 26.0935 45.9753 25.0783 45.0262 24.1651C46.2727 25.0452 47.3871 26.0665 48.3723 27.232ZM46.2277 26.7213C45.9723 26.5952 45.717 26.472 45.4617 26.3429C45.4437 26.1356 45.4137 25.9313 45.3716 25.7271C45.2935 25.2405 44.6867 25.0963 44.3623 25.4237C44.2902 25.5078 44.2392 25.6009 44.2061 25.7061C43.7646 25.4778 43.32 25.2495 42.8785 25.0212C42.9175 24.865 42.8635 24.7479 42.7223 24.6728C42.8244 24.2312 42.7583 23.7957 42.2447 23.7086C42.2627 23.3481 42.1846 22.8315 41.713 22.8946C41.1663 22.9937 41.3736 23.6425 41.3436 24.036C41.2505 24.0931 41.1603 24.1591 41.0702 24.2222C41.0492 24.2132 41.0282 24.2042 41.0041 24.1952C40.5656 23.1349 39.9018 22.42 39.0817 21.9724C42.0224 22.483 44.6777 24.1321 46.2277 26.7213ZM39.1568 21.2785C38.9616 21.2485 38.7664 21.2185 38.5621 21.2004C38.5351 21.1554 38.502 21.1133 38.466 21.0773C38.6973 21.1434 38.9286 21.2064 39.1568 21.2785ZM38.469 36.9791C38.1956 37.2224 37.9223 37.4657 37.649 37.712C37.8953 37.1804 38.1386 36.6487 38.3759 36.114C38.4059 36.4024 38.4359 36.6908 38.469 36.9791ZM38.0635 33.1584C37.9824 33.3536 37.9043 33.5458 37.8232 33.7411C37.5018 34.1796 37.1834 34.6212 36.865 35.0597C36.862 35.0417 36.862 35.0267 36.859 35.0087C37.2435 34.2337 37.6279 33.4557 38.0154 32.6808C38.0334 32.84 38.0485 32.9992 38.0635 33.1584ZM37.8983 31.5153C37.5078 32.3023 37.1203 33.0893 36.7328 33.8823C36.7328 33.8763 36.7328 33.8733 36.7328 33.8703C36.6968 33.5308 36.6667 33.1884 36.6397 32.846C37.0542 32.3443 37.4717 31.8427 37.8803 31.3351C37.8863 31.3952 37.8923 31.4552 37.8983 31.5153ZM37.0002 26.6102C37.1113 26.451 37.2224 26.2918 37.3276 26.1266C37.3396 26.2287 37.3516 26.3278 37.3636 26.43C37.0572 27.1178 36.7478 27.8027 36.4445 28.4935C36.4445 28.1151 36.4445 27.7366 36.4595 27.3581C36.6427 27.1148 36.8289 26.8655 37.0002 26.6102ZM36.7058 25.2765C36.7689 25.0272 36.8049 24.8109 36.9311 24.5646L36.9941 24.5947C37.0062 24.6217 37.0182 24.6487 37.0302 24.6758C37.0572 24.7569 37.0843 24.841 37.1053 24.9251C36.9701 25.0392 36.8379 25.1594 36.7058 25.2765ZM37.7481 30.0014C37.7571 30.0705 37.7631 30.1426 37.7691 30.2117C37.5258 30.5181 37.2825 30.8245 37.0332 31.1248C36.871 31.3201 36.7118 31.5123 36.5526 31.7076C36.5496 31.6805 36.5496 31.6505 36.5466 31.6234C36.9641 31.0918 37.3516 30.5451 37.7481 30.0014ZM37.8592 20.9031C37.7841 20.9391 37.7271 20.9932 37.685 21.0653H37.682C37.658 21.0623 37.6369 21.0593 37.6129 21.0563C37.4447 21.0322 37.2795 21.0112 37.1143 20.9932C37.1383 20.9031 37.1353 20.816 37.1023 20.7319C37.3576 20.7859 37.6099 20.84 37.8592 20.9031ZM36.7358 22.0535C36.9641 22.0595 37.1954 22.0775 37.4207 22.1106C37.4027 22.3449 37.3906 22.5822 37.3876 22.8165C37.3546 22.8255 37.3216 22.8345 37.2915 22.8495C37.2555 22.8675 37.2224 22.8916 37.1924 22.9186C36.9611 22.7624 36.7298 22.6092 36.4985 22.456C36.5856 22.3268 36.6607 22.1887 36.7358 22.0535ZM36.084 23.0658C36.2372 23.1709 36.3874 23.276 36.5376 23.3812C36.3634 23.3091 36.1861 23.24 36.0089 23.1739C36.0359 23.1379 36.06 23.1018 36.084 23.0658ZM34.6662 23.6755C34.6032 23.7626 34.5401 23.8497 34.477 23.9369C34.4109 23.9549 34.3418 23.9639 34.2727 23.9819C34.2697 23.9549 34.2637 23.9248 34.2547 23.8978C34.2427 23.8528 34.2217 23.8107 34.1977 23.7717C34.2848 23.7326 34.3569 23.6725 34.4139 23.5914C34.498 23.6215 34.5821 23.6485 34.6662 23.6755ZM34.474 22.6603C34.6152 22.5221 34.7564 22.3869 34.8975 22.2518C35.0717 22.3719 35.249 22.4921 35.4232 22.6092C35.3571 22.7053 35.291 22.8014 35.2219 22.8946C35.1679 22.8765 35.1138 22.8585 35.0597 22.8435C34.8645 22.7804 34.6692 22.7203 34.474 22.6603ZM34.2427 27.8117C34.0925 27.9769 33.9423 28.1481 33.7952 28.3163C33.7411 27.8598 33.69 27.4002 33.648 26.9436C33.7681 26.8235 33.8883 26.7063 34.0114 26.5892C34.0655 26.8775 34.1226 27.1659 34.1766 27.4542C34.1977 27.5714 34.2187 27.6915 34.2427 27.8117ZM34.0775 37.67C34.1166 37.8052 34.1496 37.9433 34.1916 38.0785C34.0715 38.1866 33.9423 38.2918 33.8162 38.3969C33.9033 38.1536 33.9904 37.9133 34.0775 37.67ZM34.1075 30.5511C34.1015 30.5151 34.0955 30.479 34.0925 30.443C34.2637 30.2267 34.435 30.0104 34.6032 29.7912C34.6963 30.2988 34.7864 30.8064 34.8795 31.3141C34.6993 31.5514 34.5191 31.7917 34.3418 32.029C34.2607 31.5363 34.1826 31.0437 34.1075 30.5511ZM34.8134 26.6312C34.7684 26.4119 34.7263 26.1927 34.6813 25.9734C34.8885 25.7902 35.1108 25.628 35.3271 25.4568C35.1528 25.8472 34.9846 26.2407 34.8134 26.6312ZM35.4863 28.6497C35.4863 28.6888 35.4863 28.7248 35.4863 28.7639C35.4863 29.1964 35.4803 29.638 35.4863 30.0735C35.4112 29.695 35.3391 29.3166 35.264 28.9381C35.3391 28.842 35.4142 28.7459 35.4863 28.6497ZM34.7503 24.9431C34.7203 24.9671 34.6903 24.9912 34.6602 25.0152C34.8375 24.7779 35.0087 24.5406 35.1829 24.3033C35.3931 24.2583 35.6064 24.2312 35.8197 24.1982C35.4472 24.4235 35.0898 24.6728 34.7503 24.9431ZM33.3806 20.2092C34.1616 20.2543 34.9426 20.3444 35.7206 20.4675C35.5523 20.5667 35.3901 20.6778 35.237 20.7979C34.7774 20.7829 33.9574 20.5606 33.8672 21.2095C33.3656 20.9692 32.7739 20.9752 32.2302 20.9992C32.4765 19.4853 26.7033 21.4197 25.7842 21.5669C25.4117 21.7081 25.0332 21.8282 24.6457 21.9243C27.247 20.6598 30.1967 20.056 33.3806 20.2092ZM33.5218 32.4525C33.4888 32.3203 33.4557 32.1912 33.4227 32.062C33.4287 32.038 33.4377 32.0139 33.4467 31.9899C33.4707 32.1431 33.4948 32.2963 33.5218 32.4525ZM32.9661 33.3957C32.9962 33.5218 33.0262 33.651 33.0592 33.7771C32.9181 33.9724 32.7799 34.1646 32.6387 34.3599C32.7468 34.0385 32.855 33.7171 32.9661 33.3957ZM32.7258 29.3436C32.8099 29.0943 32.885 28.839 32.9661 28.5897C32.9901 28.7939 33.0142 28.9952 33.0412 29.1994C33.0082 29.2385 32.9751 29.2775 32.9451 29.3166C32.888 29.3887 32.8309 29.4577 32.7739 29.5298C32.7589 29.4668 32.7408 29.4067 32.7258 29.3436ZM25.4628 42.7523C25.4267 42.5 25.3877 42.2447 25.3486 41.9924C25.4628 41.5508 25.5799 41.1093 25.7091 40.6677C25.7751 40.5656 25.8412 40.4635 25.9133 40.3644L26.0785 40.1241C26.1807 40.6797 26.3248 41.2234 26.5111 41.7551C26.1656 42.0915 25.8172 42.4249 25.4628 42.7523ZM26.0515 44.9811C25.9944 45.1703 25.9404 45.3596 25.8893 45.5518C25.8863 45.5338 25.8833 45.5128 25.8803 45.4948C25.8713 45.4347 25.8623 45.3716 25.8532 45.3085C25.9283 45.1914 25.9944 45.0802 26.0515 44.9811ZM22.9726 44.876C23.273 44.3593 23.6034 43.8607 23.9308 43.3621C23.9459 43.3381 23.9579 43.317 23.9729 43.293C23.9909 43.3621 24.0089 43.4282 24.027 43.4973C23.7026 44.0079 23.5374 44.5726 22.9726 44.876ZM24.0029 46.3328C23.9939 46.3658 23.9819 46.3989 23.9729 46.4289C23.9519 46.501 23.9308 46.5761 23.9098 46.6482C23.9369 46.534 23.9639 46.4259 23.9909 46.3118C23.9939 46.3208 23.9969 46.3268 24.0029 46.3328ZM22.6392 49.6519C22.5762 49.739 22.5131 49.8202 22.447 49.9013C22.429 49.9193 22.414 49.9373 22.3959 49.9553C22.3028 49.5768 22.1737 49.2104 22.0475 48.8439C21.8883 48.3723 21.7111 47.9038 21.5369 47.4412C21.5248 47.4141 21.5158 47.3871 21.5068 47.3601C21.8853 47.3511 22.0054 46.9516 21.9844 46.6332C22.1556 46.7023 22.3449 46.7713 22.5221 46.7383C22.6122 46.7203 22.6993 46.6993 22.7834 46.6752C22.5671 47.6274 22.0805 48.7388 22.6392 49.6519ZM16.9832 31.4372C16.8901 31.3501 16.7789 31.293 16.6528 31.269C16.5566 31.26 16.4635 31.266 16.3704 31.293C16.3254 31.1699 16.2563 31.0617 16.1692 30.9626C17.2625 28.836 18.9116 27.0517 20.7379 25.4988C19.4823 27.4813 18.1667 29.4157 16.9832 31.4372ZM20.08 40.2953C20.038 40.3583 19.9929 40.4244 19.9509 40.4875C19.9088 40.3403 19.8668 40.1901 19.8247 40.0399C19.7707 39.8387 19.7136 39.6344 19.6565 39.4302C19.6715 39.4062 19.6865 39.3851 19.7016 39.3611C19.7797 39.298 19.8548 39.2319 19.9299 39.1689C19.9719 39.4752 20.014 39.7846 20.053 40.091C20.062 40.1601 20.071 40.2262 20.08 40.2953ZM15.8418 38.1536C15.8297 37.8712 15.8177 37.5859 15.8057 37.3035C15.7997 37.1804 15.7967 37.0572 15.7937 36.9311C16.2352 37.0963 16.6738 36.8109 17.0523 36.6097C16.9561 36.8049 16.86 36.9972 16.7609 37.1924C16.6468 37.4207 16.5356 37.649 16.4335 37.8803C16.3704 37.9163 16.3073 37.9523 16.2443 37.9884C16.1121 38.0515 15.9799 38.1055 15.8418 38.1536ZM16.01 39.0667C15.9739 39.2079 15.9529 39.3521 15.9409 39.4993C15.9289 39.3671 15.9168 39.2319 15.9048 39.0998C15.9409 39.0878 15.9739 39.0757 16.01 39.0667ZM14.442 37.2074C14.418 37.2945 14.3969 37.3846 14.3789 37.4747V37.4808C14.3489 37.4928 14.3219 37.5078 14.2948 37.5258C14.3249 37.3576 14.3549 37.1924 14.3819 37.0272C14.3939 37.0542 14.403 37.0813 14.415 37.1113C14.412 37.1053 14.409 37.0993 14.409 37.0963C14.421 37.1323 14.43 37.1714 14.442 37.2074ZM14.4841 38.6552C14.5021 38.6823 14.5201 38.7063 14.5381 38.7333C14.6102 38.8204 14.6883 38.8985 14.7784 38.9676C14.8535 39.3911 14.9166 39.8177 14.9797 40.2472C14.7754 40.3794 14.5652 40.5055 14.3489 40.6197C14.3309 40.6257 14.2768 40.6497 14.2227 40.6737C14.2377 40.0009 14.2888 39.3251 14.4841 38.6552ZM14.6162 41.1423C14.7724 41.0642 14.9226 40.9771 15.0698 40.881C15.1509 41.4337 15.226 41.9864 15.3161 42.5421C15.3882 43.0137 15.4663 43.4822 15.5444 43.9538C15.4903 43.9148 15.4332 43.8817 15.3762 43.8577C15.2891 43.8157 15.202 43.7946 15.1058 43.7916C14.9917 43.7766 14.8806 43.7976 14.7784 43.8547C14.5772 43.0107 14.3759 42.1666 14.2287 41.3135C14.3579 41.2595 14.4871 41.2054 14.6162 41.1423ZM15.3251 30.3408C15.3341 30.3198 15.3431 30.3018 15.3521 30.2838C15.5354 29.8122 15.7637 29.3646 16.031 28.9381C16.04 29.0282 16.073 29.1093 16.1271 29.1814C15.8628 29.5689 15.5984 29.9594 15.3251 30.3408ZM15.1239 44.6237C15.1299 44.5966 15.1329 44.5696 15.1389 44.5426V44.5396C15.4873 44.8009 15.6946 45.2274 15.8357 45.6299C15.6886 45.4557 15.5474 45.2785 15.4032 45.0983C15.3071 44.9751 15.214 44.8489 15.1239 44.7228C15.1239 44.6898 15.1239 44.6567 15.1239 44.6237ZM17.3106 33.9333C17.4247 34.3268 17.5329 34.7233 17.641 35.1168C17.4397 35.27 17.2355 35.4172 17.0282 35.5674C16.8991 35.6545 16.7699 35.7386 16.6347 35.8137C16.4846 35.8918 16.3344 35.9669 16.1782 36.0299C16.1812 36.0149 16.1842 35.9999 16.1872 35.9879C16.2533 35.8017 16.3254 35.6214 16.4065 35.4412C16.6828 34.9246 16.9922 34.4259 17.3106 33.9333ZM16.5176 32.2572C16.5176 32.1942 16.5236 32.1341 16.5236 32.074C16.5296 32.068 16.5386 32.062 16.5476 32.059C16.5657 32.077 16.5777 32.095 16.5927 32.1161C16.5687 32.1611 16.5416 32.2092 16.5176 32.2572ZM18.7614 33.1313C18.8365 33.0562 18.9086 32.9721 18.9837 32.894C18.7644 33.4047 18.5091 33.8913 18.2147 34.3599C18.0946 33.9514 17.9744 33.5428 17.8392 33.1373C17.9384 32.9841 18.0495 32.837 18.1486 32.6868C18.0585 33.0713 18.1667 33.3176 18.7614 33.1313ZM19.3772 34.7924C19.4012 34.7744 19.4222 34.7534 19.4432 34.7353C19.4643 34.9846 19.4853 35.234 19.5093 35.4863C19.254 35.7146 18.9957 35.9398 18.7374 36.1651C18.6743 35.9488 18.6142 35.7326 18.5511 35.5133C18.8335 35.279 19.1098 35.0417 19.3772 34.7924ZM19.2931 31.5934C19.3531 31.4733 19.4162 31.3561 19.4763 31.236C19.4673 31.281 19.4613 31.3261 19.4553 31.3711C19.4012 31.4462 19.3411 31.5243 19.2931 31.5934ZM19.0107 47.2549C18.9206 46.9906 18.8305 46.7263 18.7464 46.462C18.8065 46.4139 18.8665 46.3628 18.9266 46.3148C18.9386 46.3028 18.9506 46.2938 18.9626 46.2847C18.9506 46.6512 19.0648 47.0597 19.3621 47.294C19.3651 47.5794 19.3682 47.8617 19.3742 48.1471C19.236 47.8407 19.1158 47.5343 19.0017 47.2249C19.0047 47.2339 19.0077 47.2429 19.0107 47.2549ZM18.5181 45.6149H18.5151C18.449 45.2995 18.3979 44.9841 18.3589 44.6627C18.485 44.4705 18.6112 44.2782 18.7404 44.089C18.8966 43.8487 19.0528 43.6084 19.209 43.3681C19.263 43.5063 19.3141 43.6414 19.3651 43.7796C19.4402 44.0019 19.5364 44.2662 19.6295 44.5336C19.4222 45.0292 18.9056 45.2695 18.5181 45.6149ZM18.0105 42.0074C18.1096 41.8482 18.2117 41.689 18.3108 41.5268C18.4039 41.3856 18.4911 41.2475 18.5842 41.1033C18.7404 40.857 18.8966 40.6137 19.0558 40.3674C19.0588 40.3794 19.0588 40.3884 19.0618 40.4004C19.1519 40.7398 19.239 41.0792 19.3291 41.4157C19.2029 41.5328 19.0708 41.653 18.9476 41.7641C18.6262 41.6229 18.2357 41.7551 18.0105 42.0074ZM19.4913 36.7749C19.3591 36.9941 19.23 37.2134 19.0978 37.4327C19.0798 37.3606 19.0588 37.2885 19.0377 37.2164C19.23 36.9941 19.4222 36.7719 19.6145 36.5496C19.6145 36.5556 19.6175 36.5586 19.6175 36.5646C19.5754 36.6337 19.5334 36.7058 19.4913 36.7749ZM18.0795 36.7178C18.0105 36.7749 17.9384 36.8319 17.8663 36.889C17.9203 36.7749 17.9774 36.6577 18.0345 36.5436C18.0495 36.6007 18.0645 36.6577 18.0795 36.7178ZM18.41 37.9343C18.452 38.0875 18.4941 38.2407 18.5331 38.3939C18.3018 38.7994 18.0675 39.2019 17.8362 39.6074C17.626 39.7246 17.4157 39.8567 17.1574 39.8988C17.0703 39.9078 16.9832 39.9048 16.8961 39.8898C16.854 39.7606 16.839 39.6314 16.848 39.4963C17.3947 39.0037 17.9173 38.478 18.41 37.9343ZM16.037 40.1931C16.1722 40.6797 16.7038 40.851 17.1634 40.8179C16.821 41.4547 16.5266 42.1306 16.4515 42.8545C16.3854 42.5391 16.3163 42.2207 16.2473 41.9023C16.1662 41.3376 16.0941 40.7729 16.022 40.2052C16.028 40.2022 16.034 40.1961 16.037 40.1931ZM16.2022 47.321C16.3254 47.3691 16.4515 47.3751 16.5777 47.3391C16.7218 47.7205 16.854 48.069 16.9862 48.4625C16.7669 48.2011 16.5627 47.9338 16.3644 47.6514C16.3103 47.5643 16.2202 47.4292 16.1361 47.288C16.1571 47.3 16.1782 47.312 16.2022 47.321ZM16.9501 45.1223C16.9441 45.1313 16.9411 45.1403 16.9351 45.1493C16.9321 45.1373 16.9321 45.1283 16.9291 45.1193C16.851 44.7468 16.7969 44.4404 16.7128 44.056V44.053C16.827 44.113 16.9501 44.128 17.0763 44.095C17.1904 44.068 17.3076 44.0439 17.4217 44.0139C17.4187 44.128 17.4187 44.2392 17.4187 44.3533C17.2535 44.6056 17.0913 44.861 16.9501 45.1223ZM17.3887 46.2457C17.3797 46.2667 17.3737 46.2817 17.3647 46.3028C17.4367 46.1706 17.5088 46.0414 17.5839 45.9123C17.6019 46.0174 17.623 46.1225 17.647 46.2277C17.605 46.2517 17.5599 46.2757 17.5178 46.2998C17.5299 46.2907 17.5419 46.2847 17.5539 46.2787C17.5118 46.2998 17.4668 46.3178 17.4217 46.3358C17.3947 46.3478 17.3647 46.3568 17.3376 46.3658C17.3526 46.3268 17.3707 46.2847 17.3887 46.2457ZM17.8603 47.0717C18.1787 47.9909 18.3619 49.3095 19.4432 49.6099C19.4613 49.8352 19.4973 50.0574 19.5544 50.2767C19.5844 50.3909 19.6115 50.508 19.6535 50.6191C19.4012 50.478 19.1489 50.3278 18.9056 50.1656C18.6442 49.9914 18.3949 49.8051 18.1546 49.6069C18.0735 48.7748 17.6981 48.0179 17.3827 47.258C17.5449 47.2039 17.7041 47.1438 17.8603 47.0717ZM20.9151 31.1849C21.0052 31.4402 21.0863 31.6955 21.1614 31.9539C20.9541 32.1551 20.7439 32.3564 20.5366 32.5546C20.4435 32.6477 20.3534 32.7378 20.2603 32.8279C20.1461 32.1761 20.6207 31.6895 20.8971 31.1398C20.9031 31.1579 20.9121 31.1729 20.9181 31.1909C20.9151 31.1879 20.9151 31.1849 20.9151 31.1849ZM20.6087 33.66C20.876 33.3957 21.1404 33.1313 21.4077 32.873C21.4467 33.0292 21.4858 33.1854 21.5248 33.3416C21.3176 33.6179 21.1103 33.8973 20.8971 34.1706C20.7228 34.3388 20.5516 34.507 20.3804 34.6753C20.3594 34.4289 20.3384 34.1826 20.3203 33.9363C20.4165 33.8432 20.5156 33.7531 20.6087 33.66ZM22.1346 37.2525C21.7201 37.8562 21.3116 38.46 20.9031 39.0697C20.87 38.8415 20.84 38.6162 20.8069 38.3879C21.1133 38.1055 21.4137 37.8172 21.7081 37.5228C21.9364 37.2945 22.1646 37.0662 22.3929 36.841C22.3929 36.85 22.3959 36.859 22.3989 36.868C22.3118 36.9941 22.2247 37.1233 22.1346 37.2525ZM22.1466 40.115C21.8523 40.6497 21.5699 41.1904 21.2906 41.7371C21.2575 41.5178 21.2245 41.2985 21.1944 41.0792C21.5128 40.7548 21.8282 40.4364 22.1466 40.115ZM21.1043 35.6395C21.3356 35.249 21.5699 34.8615 21.8132 34.474C21.8222 34.5131 21.8312 34.5551 21.8432 34.5942C21.5939 34.9426 21.3476 35.291 21.1043 35.6395ZM21.7351 36.3033C21.8102 36.1921 21.8883 36.084 21.9634 35.9729C22.0175 35.8948 22.0715 35.8197 22.1226 35.7416C22.1346 35.7896 22.1466 35.8377 22.1586 35.8858C22.0175 36.0239 21.8763 36.1651 21.7351 36.3033ZM21.7681 31.3291C21.7261 31.1969 21.684 31.0617 21.639 30.9296C21.5699 30.7103 21.4828 30.5 21.3807 30.2928C21.4167 30.2327 21.4528 30.1726 21.4888 30.1126C21.7772 29.8002 22.0745 29.4938 22.3839 29.1994C22.456 29.1273 22.5371 29.0613 22.6092 28.9922C22.6332 29.4487 22.6603 29.9053 22.6813 30.3649C22.5972 30.458 22.5101 30.5541 22.423 30.6472C22.2037 30.8725 21.9844 31.1008 21.7681 31.3291ZM20.882 48.1471C21.1464 48.9491 21.4648 49.7421 21.5669 50.5831C21.4708 50.6161 21.3717 50.6372 21.2695 50.6402C20.5967 50.5471 20.6117 49.667 20.5126 49.1203C20.6988 48.8199 20.822 48.4955 20.882 48.1471ZM21.7832 45.0322C21.7772 45.0081 21.7742 44.9871 21.7711 44.9631C21.7201 44.6177 21.669 44.2692 21.618 43.9238C22.2908 43.278 22.9877 42.6502 23.6425 41.9804C23.6425 41.9894 23.6455 41.9954 23.6455 42.0044C23.0147 43.0016 22.3058 43.9689 21.7832 45.0322ZM24.0029 33.0743C24.1501 32.873 24.2973 32.6718 24.4445 32.4705C24.4955 32.7138 24.5436 32.9541 24.5947 33.1974C24.4295 33.3897 24.2673 33.5819 24.1051 33.7771C24.1021 33.7501 24.0961 33.7261 24.093 33.699C24.066 33.4888 24.036 33.2815 24.0029 33.0743ZM24.2462 27.5594C24.3273 27.4963 24.4054 27.4272 24.4895 27.3641C24.4505 27.6675 24.4355 27.9739 24.4445 28.2803C24.4355 28.2893 24.4295 28.2983 24.4205 28.3073C24.4205 28.3103 24.4205 28.3103 24.4175 28.3133C24.3484 28.067 24.2973 27.8147 24.2462 27.5594ZM24.4084 35.6605C24.5857 35.4022 24.7659 35.1438 24.9461 34.8855C24.9701 35.0027 24.9972 35.1198 25.0242 35.24C24.832 35.5463 24.6427 35.8557 24.4565 36.1621C24.4325 36.0059 24.4084 35.8527 24.3844 35.6965C24.3934 35.6845 24.4024 35.6725 24.4084 35.6605ZM24.5136 48.2372C24.6578 47.7716 24.7809 47.303 24.9011 46.8314C24.9461 47.0177 25.0452 47.1738 25.1924 47.294C25.0963 47.4652 24.9972 47.6334 24.892 47.8016C24.7809 47.9728 24.6247 48.1831 24.4685 48.3844C24.4835 48.3363 24.4986 48.2852 24.5136 48.2372ZM24.9972 39.7065C24.9311 39.274 24.862 38.8384 24.7959 38.4059C25.0302 38.0605 25.2615 37.7181 25.4958 37.3756C25.5469 37.6039 25.6009 37.8292 25.652 38.0575C25.5048 38.5351 25.3576 39.0127 25.2104 39.4903C25.1384 39.5624 25.0663 39.6314 24.9972 39.7065ZM26.5952 30.2147C26.6192 30.3408 26.6462 30.464 26.6703 30.5902C26.4179 30.9326 26.1506 31.266 25.8923 31.6054C25.8322 31.6835 25.7721 31.7616 25.7091 31.8397C25.661 31.5363 25.6189 31.23 25.5829 30.9266C25.5829 30.9236 25.5829 30.9236 25.5829 30.9206C25.5889 30.9176 25.5919 30.9116 25.5949 30.9056C25.8953 30.5211 26.1927 30.1366 26.493 29.7521C26.5291 29.9113 26.5621 30.0705 26.5952 30.2297C26.5952 30.2267 26.5952 30.2207 26.5952 30.2147ZM27.5684 34.9186C27.6405 35.255 27.7126 35.5914 27.7847 35.9278C27.7907 35.9549 27.7967 35.9819 27.8027 36.0089C27.4452 36.5105 27.0848 37.0062 26.7213 37.5018C26.7183 37.4868 26.7153 37.4687 26.7123 37.4507C26.9947 36.6037 27.283 35.7596 27.5684 34.9186ZM27.0938 33.0863C27.1178 33.0502 27.1388 33.0112 27.1629 32.9751L27.1659 32.9932C27.1418 33.0262 27.1178 33.0562 27.0938 33.0863ZM27.6675 23.0538C27.9198 22.9456 28.1721 22.8345 28.4275 22.7263C28.5296 23.3151 28.3524 23.8497 28.049 24.3243C27.8838 24.4205 27.7216 24.5166 27.5564 24.6157C27.7546 24.1081 27.8898 23.5674 27.6675 23.0538ZM29.1784 22.7233C29.8002 22.6633 30.4189 22.6873 31.0347 22.7894C30.9025 22.8495 30.7704 22.9096 30.6382 22.9696C30.1186 22.7354 29.5959 23.1198 29.1664 23.3872C29.1844 23.267 29.1904 23.1439 29.1874 23.0207C29.1874 22.9276 29.1874 22.8225 29.1784 22.7233ZM31.7376 23.6695C31.5574 23.6966 31.3861 23.7416 31.2179 23.8107C31.2149 23.6966 31.1879 23.5884 31.1398 23.4863C31.5093 23.3271 31.8788 23.1709 32.2542 23.0237C32.2602 23.0267 32.2662 23.0267 32.2753 23.0297C32.077 23.228 31.8968 23.4412 31.7376 23.6695ZM32.0199 29.5328C31.8427 30.0735 31.6625 30.6142 31.4823 31.1519C31.3621 31.302 31.242 31.4522 31.1218 31.6054C31.0768 31.302 31.0377 30.9987 30.9957 30.6953C31.1759 30.1907 31.3621 29.689 31.5514 29.1874C31.6505 29.0763 31.7496 28.9621 31.8487 28.851C31.9058 29.0793 31.9629 29.3076 32.0199 29.5328ZM31.4222 27.7426C31.3411 27.9378 31.248 28.1301 31.1669 28.3283C31.0587 28.4695 30.9476 28.6077 30.8365 28.7489C31.0347 28.4154 31.233 28.079 31.4222 27.7426ZM29.1664 24.4145C29.5659 24.2102 29.9714 24.015 30.3769 23.8287C30.44 23.9999 30.3198 24.2402 30.2958 24.4145C29.9383 24.6968 29.5929 25.0002 29.2685 25.3246C29.1393 25.4537 29.0102 25.5829 28.881 25.7151C28.848 25.6129 28.8059 25.5108 28.7519 25.4147C28.7068 25.3276 28.6527 25.2465 28.5867 25.1714C28.5776 25.1624 28.5716 25.1564 28.5626 25.1474C28.6077 25.0543 28.6527 24.9611 28.6948 24.868C28.848 24.7148 29.0072 24.5616 29.1664 24.4145ZM29.5448 31.5994C29.5959 31.8307 29.647 32.062 29.698 32.2903C29.4577 32.9932 29.2204 33.696 28.9922 34.4019C28.9351 34.474 28.881 34.5491 28.8239 34.6212C28.7188 34.0445 28.6167 33.4647 28.5176 32.885C28.6768 32.6748 28.836 32.4615 29.0042 32.2572C29.1844 32.038 29.3646 31.8187 29.5448 31.5994ZM29.1724 26.6853C29.1814 26.6823 29.1904 26.6793 29.2024 26.6763C29.1934 26.6883 29.1874 26.7003 29.1814 26.7123C29.1784 26.7033 29.1754 26.6943 29.1724 26.6853ZM28.6557 27.6164C28.4214 27.9859 28.1872 28.3584 27.9559 28.7338C27.9378 28.4815 27.9228 28.2262 27.9138 27.9709C28.082 27.7726 28.2502 27.5744 28.4214 27.3761C28.4214 27.3792 28.4184 27.3822 28.4184 27.3852C28.4665 27.3311 28.5116 27.277 28.5596 27.223C28.5927 27.3551 28.6227 27.4843 28.6557 27.6164ZM28.4845 39.0097C28.3584 39.298 28.2472 39.5924 28.1181 39.8807C28.1872 39.6374 28.2562 39.3941 28.3253 39.1538C28.3614 39.0307 28.3974 38.9075 28.4305 38.7814C28.4485 38.8595 28.4665 38.9346 28.4845 39.0097ZM28.0219 37.4747C27.9799 37.6159 27.9348 37.7541 27.8898 37.8953C27.6585 38.6222 27.4693 39.3761 27.28 40.1361C27.1839 39.6915 27.0878 39.253 26.9917 38.8024C27.298 38.3308 27.6405 37.8863 28.0219 37.4747ZM28.2863 26.2467C28.2893 26.2557 28.2923 26.2648 28.2923 26.2708C28.2953 26.2768 28.2983 26.2828 28.3013 26.2918C28.3013 26.2888 28.2983 26.2858 28.2983 26.2828C28.3013 26.2948 28.3043 26.3068 28.3103 26.3188C28.1811 26.457 28.052 26.5982 27.9258 26.7394C27.9378 26.5862 27.9529 26.433 27.9739 26.2798C28.037 26.1716 28.097 26.0605 28.1571 25.9494C28.2022 26.0515 28.2472 26.1566 28.2893 26.2618C28.2893 26.2557 28.2863 26.2527 28.2863 26.2467ZM25.9974 33.657C25.9854 33.5849 25.9734 33.5158 25.9614 33.4437C26.0755 33.2815 26.1897 33.1193 26.3038 32.9571C26.5231 32.6447 26.7393 32.3233 26.9646 32.0139C26.9676 32.029 26.9706 32.044 26.9736 32.059C26.6492 32.5937 26.3248 33.1253 25.9974 33.657ZM25.4748 26.8084C25.4838 26.7574 25.4958 26.7033 25.5048 26.6522C25.5078 26.6372 25.5108 26.6192 25.5138 26.6042C25.5679 26.5681 25.6189 26.5291 25.673 26.49C25.6099 26.5982 25.5439 26.7033 25.4748 26.8084ZM26.7604 46.504C27.3641 45.4407 27.9018 44.3473 28.3794 43.2209C28.6317 43.2119 28.869 43.1428 29.0883 43.0227C29.0042 43.305 28.9261 43.5904 28.842 43.8727C28.061 45.3566 27.1899 46.8134 26.7003 48.4024C26.6462 48.4564 26.5922 48.5105 26.5351 48.5646C26.5171 48.5826 26.439 48.6457 26.3579 48.7088C26.4059 47.9578 26.5411 47.2219 26.7604 46.504ZM28.89 42.0044C28.9591 41.8332 29.0282 41.662 29.0973 41.4908C29.1243 41.6109 29.1544 41.7311 29.1874 41.8482C29.1784 41.8542 29.1664 41.8602 29.1574 41.8662C29.0733 41.9083 28.9801 41.9593 28.89 42.0044ZM29.1574 36.3453C29.1754 36.2823 29.1964 36.2162 29.2174 36.1531C29.3376 36.0209 29.4547 35.8888 29.5749 35.7566C29.7191 35.5974 29.8602 35.4412 30.0044 35.285C29.7761 35.8798 29.5418 36.4745 29.3015 37.0662C29.2535 36.8259 29.2054 36.5856 29.1574 36.3453ZM30.437 35.5764C30.5 35.8557 30.5661 36.1381 30.6322 36.4204C30.3499 37.0903 30.0675 37.7601 29.7851 38.4269C29.7671 38.454 29.7491 38.478 29.7311 38.505C29.692 38.5441 29.653 38.5861 29.6139 38.6252C29.5689 38.4029 29.5238 38.1806 29.4788 37.9553C29.8032 37.1654 30.1216 36.3724 30.437 35.5764ZM31.1248 39.1118C31.1639 39.0697 31.2059 39.0277 31.245 38.9856C31.263 39.0547 31.281 39.1238 31.299 39.1929C31.3681 39.4602 31.4372 39.7276 31.5063 39.9949C31.4462 40.1331 31.3801 40.2742 31.3201 40.4124C31.278 40.4455 31.239 40.4755 31.1969 40.5055C30.9386 40.4665 30.7674 40.5896 30.6202 40.7518C30.7884 40.2052 30.9566 39.6585 31.1248 39.1118ZM31.4462 33.6209C31.6895 33.3356 31.9328 33.0472 32.1791 32.7619C31.9719 33.2545 31.7616 33.7471 31.5544 34.2397C31.5183 34.0355 31.4793 33.8282 31.4462 33.6209ZM31.7286 32.3924C31.6835 32.4465 31.6355 32.5005 31.5904 32.5546C31.5964 32.5336 31.6054 32.5096 31.6144 32.4885C31.6625 32.4285 31.7075 32.3684 31.7526 32.3083C31.9929 32.0049 32.2362 31.7015 32.4765 31.3982C32.4825 31.4252 32.4885 31.4522 32.4975 31.4763C32.2452 31.7856 31.9899 32.092 31.7286 32.3924ZM32.4284 28.2112C32.4375 28.2022 32.4435 28.1932 32.4525 28.1872C32.4465 28.2022 32.4435 28.2202 32.4375 28.2382C32.4345 28.2292 32.4314 28.2202 32.4284 28.2112ZM26.5321 23.5434C26.7604 24.1892 26.481 24.859 26.2137 25.4688C26.1506 25.5078 26.0905 25.5499 26.0275 25.5889C25.2675 24.9731 24.841 25.688 24.6277 26.5741C24.4535 26.7003 24.2823 26.8265 24.1141 26.9556C24.063 26.7363 23.9969 26.5261 23.9128 26.3188C24.7208 25.3576 25.3186 24.039 26.5321 23.5434ZM23.6425 28.7128C23.6755 28.857 23.7056 29.0012 23.7386 29.1454C23.6905 29.2054 23.6425 29.2655 23.5914 29.3256C23.5674 28.9591 23.5464 28.5927 23.5374 28.2232C23.5734 28.3854 23.6064 28.5506 23.6425 28.7128ZM23.5013 36.9881C23.5103 37.0602 23.5223 37.1323 23.5313 37.2044C23.4743 37.2615 23.4202 37.3216 23.3661 37.3786C23.3541 37.3336 23.3421 37.2855 23.3301 37.2405C23.3872 37.1563 23.4442 37.0722 23.5013 36.9881ZM23.3661 40.869C23.3932 40.9831 23.4232 41.0973 23.4502 41.2144C22.9486 41.716 22.426 42.1906 21.9003 42.6712C22.3659 41.9834 22.8345 41.2955 23.3031 40.6047C23.3241 40.6918 23.3451 40.7789 23.3661 40.869ZM23.2009 34.7744C23.1228 34.8585 23.0447 34.9426 22.9666 35.0267C22.9126 35.0838 22.8585 35.1438 22.8044 35.2039C22.7774 35.0958 22.7474 34.9876 22.7203 34.8795C22.8585 34.6813 22.9967 34.48 23.1349 34.2818C23.1559 34.447 23.1799 34.6122 23.2009 34.7744ZM22.7954 31.4823C22.5641 31.8337 22.3389 32.1882 22.1106 32.5486C22.1106 32.5516 22.1076 32.5546 22.1046 32.5576C22.0805 32.4555 22.0535 32.3534 22.0265 32.2512C22.2007 32.071 22.3719 31.8878 22.5461 31.7045C22.6272 31.6204 22.7113 31.5363 22.7924 31.4522C22.7924 31.4612 22.7954 31.4703 22.7954 31.4823ZM20.852 29.683C20.7499 29.623 20.6417 29.5899 20.5216 29.5869C20.4495 29.5899 20.3774 29.6049 20.3083 29.632C21.0743 28.6107 21.8733 27.6285 22.6993 26.6583C22.2067 27.7096 21.4287 28.6587 20.852 29.683ZM21.0382 26.1566C21.1854 25.8923 21.3296 25.631 21.4768 25.3696C21.4918 25.4177 21.5158 25.4598 21.5459 25.4988C21.5459 25.5018 21.5459 25.5018 21.5459 25.5018C21.3717 25.7151 21.2094 25.9404 21.0382 26.1566ZM21.8793 24.6998C21.9063 24.6998 21.9334 24.6998 21.9604 24.6968C21.9183 24.7208 21.8763 24.7509 21.8312 24.7779C21.8462 24.7539 21.8643 24.7268 21.8793 24.6998ZM11.9219 43.9238C11.8738 43.7706 11.8317 43.6144 11.7867 43.4612C11.5314 42.4099 11.5554 41.3346 11.6996 40.2412C11.7506 40.5536 11.8708 40.8329 12.066 41.0822C12.1622 41.5478 12.0751 42.1726 12.4175 42.5541C12.4535 43.4492 12.4956 44.3473 12.5346 45.2424C12.2763 44.8279 12.072 44.3894 11.9219 43.9238ZM11.8287 36.6307C11.5524 37.5498 11.3271 38.481 11.1529 39.4242C10.9336 32.2422 15.1419 24.7869 21.63 21.669C20.014 22.9156 18.6713 24.4685 17.5419 26.1656C17.5118 26.1837 17.4818 26.2047 17.4518 26.2257C17.623 25.9524 17.8092 25.5288 17.4968 25.2825C15.9048 24.829 13.3847 30.503 12.9101 31.8607C12.3334 33.4077 12.003 35.0087 11.8287 36.6307ZM22.4019 52.7518C18.434 52.5836 14.9617 49.9824 13.0483 46.5671C13.2796 46.3628 13.2285 45.6419 13.1744 45.2785C13.4598 46.6482 14.1446 47.7446 15.0277 48.6817C15.0518 48.7538 15.0758 48.8229 15.0998 48.895C15.1299 49.0001 15.1929 49.0842 15.2831 49.1473C15.3732 49.2104 15.4753 49.2374 15.5834 49.2284C15.5894 49.2344 15.5924 49.2374 15.5984 49.2404C15.9829 49.8502 16.6017 50.6582 17.3767 50.5951C17.9023 50.9405 18.443 51.268 18.9837 51.5773C19.0588 51.6224 19.1369 51.6314 19.221 51.6074C20.3263 52.2231 21.5729 52.5626 22.3509 51.4902C22.8735 51.1808 23.279 50.7033 23.6124 50.2016C24.2973 50.1896 24.8109 49.6519 25.2104 49.1503C25.2915 49.5528 25.5859 49.9283 26.0094 49.9854C25.1113 50.5681 24.1381 50.9466 23.0838 51.1238C22.5731 51.265 22.6723 52.0159 23.1739 52.073C25.652 51.5113 28.5987 51.0787 30.5091 49.2765C28.4275 51.4962 25.4958 52.905 22.4019 52.7518ZM29.5148 47.4682C29.686 47.2489 29.8392 47.0147 30.0044 46.7894C30.1486 46.5911 30.2808 46.3869 30.4159 46.1826C30.506 46.0504 30.5902 45.9123 30.6773 45.7801C30.7103 45.8222 30.7494 45.8522 30.7944 45.8762C30.9446 45.9333 31.0738 45.9063 31.1879 45.7951C31.2029 45.7771 31.2119 45.7591 31.2269 45.7411C30.8004 46.459 30.2297 47.0357 29.5148 47.4682ZM31.1458 43.5814C30.8034 44.08 30.452 44.5786 30.1005 45.0712C30.0315 45.1643 29.9624 45.2605 29.8933 45.3536C30.485 44.074 31.0858 42.7854 31.5153 41.4427C31.5183 41.4307 31.5213 41.4157 31.5273 41.4006C31.5874 41.3556 31.6475 41.3075 31.7106 41.2595C31.7586 41.2204 31.8067 41.1844 31.8547 41.1453C31.8637 41.2204 31.8848 41.2895 31.9178 41.3556C31.7796 41.7431 31.6415 42.1306 31.5063 42.518C31.266 42.7253 31.1789 42.9866 31.242 43.299C31.2089 43.3921 31.1789 43.4883 31.1458 43.5814ZM31.308 48.3423C31.5664 47.8136 31.8818 47.324 32.2542 46.8705C31.9749 47.3841 31.6625 47.8737 31.308 48.3423ZM32.2662 38.0184C32.2572 37.9764 32.2482 37.9343 32.2392 37.8923C32.3473 37.7721 32.4555 37.655 32.5606 37.5348C32.4735 37.7451 32.3834 37.9523 32.2933 38.1626C32.2843 38.1145 32.2753 38.0665 32.2662 38.0184ZM32.4825 39.1178C32.888 38.1746 33.2905 37.2314 33.696 36.2883C33.705 36.3183 33.7141 36.3483 33.7231 36.3784C33.3536 37.3816 32.9871 38.3849 32.6237 39.3881C32.5967 39.4092 32.5726 39.4302 32.5486 39.4482C32.5246 39.3401 32.5035 39.2289 32.4825 39.1178ZM32.5636 41.8692C32.5876 41.8031 32.6117 41.7371 32.6357 41.671C32.7438 41.6019 32.8189 41.5058 32.858 41.3826C32.882 41.2655 32.888 41.1483 32.867 41.0282C32.9932 40.6858 33.1163 40.3403 33.2395 39.9949C33.4738 39.7936 33.705 39.5954 33.9393 39.3941C33.8853 39.5143 33.8462 39.6404 33.8252 39.7696C33.4798 40.4485 33.1253 41.1213 32.7649 41.7941C32.6988 41.8152 32.6327 41.8422 32.5636 41.8692ZM33.3055 44.095C33.2935 44.1491 33.2755 44.2031 33.2635 44.2572C33.1764 44.3383 33.0923 44.4254 33.0052 44.5065C33.0112 44.4825 33.0172 44.4555 33.0232 44.4284C33.1043 44.095 33.1884 43.7586 33.2425 43.4222C33.3206 43.3831 33.3896 43.3321 33.4617 43.287C33.3746 43.5513 33.3236 43.8187 33.3055 44.095ZM34.0324 40.6647C34.3178 40.854 34.6212 40.893 34.9426 40.7819C34.5611 41.1694 34.0835 41.3676 33.5909 41.5268C33.7381 41.2414 33.8883 40.9531 34.0324 40.6647ZM34.6813 42.8244C34.5461 42.7764 34.4109 42.7493 34.2697 42.7343C34.5281 42.5601 34.7954 42.4129 35.1048 42.3769C34.9696 42.5301 34.8224 42.6742 34.6813 42.8244ZM34.9246 35.312C35.0177 35.0537 35.1108 34.7954 35.2009 34.5371C35.2099 34.5281 35.2189 34.5191 35.2249 34.51C35.294 34.432 35.3631 34.3539 35.4322 34.2758C35.5343 34.8194 35.6425 35.3601 35.7476 35.9038C35.5794 36.2522 35.4082 36.5977 35.24 36.9461C35.1318 36.4024 35.0267 35.8557 34.9246 35.312ZM36.096 38.0244C35.9518 38.3939 35.8197 38.7694 35.6815 39.1448C35.6545 39.0097 35.6274 38.8715 35.6004 38.7363C35.7626 38.499 35.9308 38.2617 36.096 38.0244ZM35.6755 43.4372C35.8918 43.2059 36.102 42.9686 36.3033 42.7193C36.853 44.3563 37.6369 45.8702 38.6552 47.264C38.7724 47.9368 38.8985 48.6066 39.0217 49.2765C38.1236 46.9516 36.9491 44.5816 35.6755 43.4372ZM39.1328 44.098C39.1508 44.095 39.1659 44.095 39.1809 44.095C39.271 44.2963 39.3611 44.4975 39.4512 44.6988C39.6104 45.0562 39.7726 45.4137 39.9378 45.7681C39.9318 45.8132 39.9258 45.8582 39.9228 45.9003C39.7876 45.6059 39.6525 45.3055 39.5233 45.0081C39.3911 44.7018 39.259 44.4014 39.1328 44.098ZM40.3133 80.6296C40.3253 80.6176 40.3343 80.6056 40.3463 80.5935C37.4898 83.9097 33.9273 87.2649 29.4067 88.0098C29.0673 88.0248 28.7128 88.0489 28.3944 87.9107C28.6317 87.4541 28.896 87.0967 29.1724 86.6641C34.0685 79.4341 39.8627 71.4531 41.0222 62.6762C41.0252 62.6852 41.0252 62.6972 41.0282 62.7062C41.1423 63.0366 41.1694 63.4662 41.5388 63.6194C40.3674 68.0439 38.3578 72.3543 36.3784 76.4964C34.8254 79.6804 33.3206 82.8584 30.6262 85.2644C30.2027 85.727 28.7068 87.0186 30.0975 87.1778C30.1126 87.2499 30.1336 87.3159 30.1636 87.385C30.9836 88.6015 35.0687 84.943 36.072 84.2701C37.7571 82.9245 39.3461 81.4767 40.8389 79.9207C40.6527 80.17 40.4755 80.4223 40.2802 80.6656C40.2923 80.6536 40.3013 80.6416 40.3133 80.6296ZM41.2444 67.1247C41.0973 67.8036 40.896 68.4884 40.5446 69.0922C40.6527 68.7858 40.7608 68.4824 40.869 68.1791C40.9951 67.8276 41.1213 67.4762 41.2444 67.1247ZM39.1028 74.8294C39.1689 74.6852 39.2289 74.538 39.289 74.3938C39.9168 74.523 40.097 73.6098 40.3794 73.2073C40.3613 73.3215 40.3884 73.4266 40.4575 73.5197C40.046 74.1595 39.6525 74.7903 39.2169 75.4181C39.244 75.34 39.268 75.2649 39.289 75.1838C39.31 75.1087 39.304 75.0396 39.268 74.9705C39.2319 74.9014 39.1779 74.8564 39.1028 74.8294ZM35.3481 81.5938C35.1018 81.8521 34.8555 82.1104 34.6062 82.3688C34.5611 82.4168 34.5161 82.4649 34.471 82.5099C34.6272 82.2366 34.7834 81.9573 34.9306 81.6749C34.9456 81.6479 34.9576 81.6238 34.9726 81.5968C35.0958 81.6208 35.2219 81.6178 35.3481 81.5938ZM33.1313 83.8616C32.6207 84.3422 32.1521 84.8739 31.6144 85.3184C32.065 84.8168 32.5156 84.3122 32.9631 83.8076C32.9661 83.8106 32.9691 83.8106 32.9721 83.8106C33.0232 83.8316 33.0773 83.8496 33.1313 83.8616ZM40.1751 79.0616C38.2377 81.0291 36.2192 82.8884 33.9964 84.5495C34.1045 84.4594 34.2127 84.3663 34.3178 84.2701C35.6905 83.0776 36.9971 81.8161 38.2407 80.4854C39.0908 79.5482 40.0249 78.6742 40.6888 77.5898C40.8299 77.3525 40.8209 77.1182 40.6677 76.8899C40.4364 76.5145 40.0069 76.7067 39.7456 76.938C40.7909 75.8266 41.8092 74.6942 42.8034 73.5407C41.9593 75.3941 40.9981 77.2053 40.1751 79.0616ZM45.0652 73.2193C44.4254 74.1295 43.7586 75.0216 43.0437 75.8777C44.3143 73.6369 45.0622 71.0837 46.4229 68.915C47.2279 67.8096 47.9969 66.6832 48.7268 65.5267C47.5824 68.119 46.3989 70.7112 45.0652 73.2193ZM49.4417 62.1205C48.874 63.1448 48.2762 64.151 47.6514 65.1453C48.3814 62.8865 49.1443 60.6246 49.8922 58.3538C49.715 59.6064 49.5468 60.8619 49.4417 62.1205ZM50.5741 51.5143C49.8021 53.8782 48.7989 56.1971 47.9758 58.495C47.9218 58.507 47.8677 58.522 47.8166 58.546C47.7956 58.555 47.7716 58.5671 47.7536 58.5821C48.7899 55.4221 49.7451 52.2412 50.6372 49.0422C50.6252 49.8652 50.6071 50.6882 50.5741 51.5143ZM50.9195 59.2759C50.8384 59.4442 50.7453 59.6034 50.6642 59.7716C50.9225 57.9393 51.0637 56.095 51.2019 54.2507C51.2439 54.1125 51.283 53.9713 51.325 53.8332C51.1748 55.6474 51.0186 57.4617 50.9195 59.2759ZM51.1748 35.4142C51.0216 34.9186 50.8685 34.4259 50.7243 33.9273C50.8955 34.3959 51.1027 34.8495 51.34 35.288C51.28 35.3241 51.2229 35.3661 51.1748 35.4142ZM53.734 45.5368C53.698 45.2124 53.6619 44.894 53.6289 44.5936C53.6649 44.3954 53.704 44.2001 53.737 44.0049C53.7491 44.5155 53.746 45.0262 53.734 45.5368ZM53.3075 39.3491C53.5088 40.5746 53.6379 41.8062 53.701 43.0437C53.6319 42.9746 53.5478 42.9326 53.4517 42.9205C53.4487 42.9205 53.4487 42.9205 53.4487 42.9205C53.4126 42.6352 53.3946 42.3468 53.3976 42.0585C53.2594 41.8092 53.2835 40.6497 53.3075 39.3491ZM52.92 49.8742C53.0522 50.3218 53.0191 50.8805 53.2054 51.316C53.0221 52.4965 52.7939 53.6679 52.5145 54.8274C52.7608 52.4725 52.899 50.1446 52.92 49.8742ZM52.076 37.1353C52.1481 37.4657 52.1601 37.7992 52.112 38.1326C52.0369 37.9463 51.9798 37.7541 51.9078 37.5649C51.9678 37.4237 52.0219 37.2795 52.076 37.1353ZM51.8507 55.4972C51.8867 54.9566 51.9258 54.4189 51.9618 53.8782C52.0309 52.9471 52.076 52.0099 52.124 51.0757C52.2322 50.6852 52.3343 50.2977 52.4364 49.9073C52.3193 52.07 52.0189 54.2327 51.7876 56.3713C51.8086 56.08 51.8297 55.7886 51.8507 55.4972ZM51.7035 45.0892C51.5984 45.9964 51.4902 46.9035 51.3731 47.8076C51.3731 47.306 51.3761 46.8014 51.3821 46.2998C51.4602 46.0084 51.5413 45.717 51.6164 45.4257C51.6464 45.3145 51.6765 45.2034 51.7035 45.0892ZM92.4463 23.276C90.5329 21.7381 88.3132 20.4285 85.9582 19.6295C86.0093 19.3021 85.5257 19.1279 85.3665 19.4433C83.9818 19.0167 82.564 18.8035 81.1162 18.8004C80.6596 18.7524 80.2001 18.7344 79.7405 18.7464C78.8934 18.6232 77.1543 19.0197 76.7578 18.9957C75.5382 19.209 74.1896 19.3381 72.94 19.6836C74.4689 18.9807 76.0669 18.5181 77.737 18.3048C77.8691 18.3168 77.9983 18.3379 78.1275 18.3739C78.4429 18.461 78.575 17.9654 78.2566 17.8783C74.4359 17.5899 70.6932 19.6775 67.6354 21.7982C58.6331 28.0189 55.6895 43.8847 65.7731 50.463C72.4804 55.1668 77.1933 51.8627 81.8882 46.462C83.7925 56.2091 81.6569 66.7733 76.0429 75.0456C73.9853 78.0644 70.9485 80.5185 68.0829 82.7953C65.0672 84.955 65.0552 87.4061 68.9781 88.166C74.6882 88.974 79.7795 85.1803 84.162 81.9993C90.7102 77.3645 95.1467 70.4649 97.5497 62.8834C101.428 51.9528 102.641 31.0197 92.4463 23.276ZM93.1132 30.0465C93.6208 30.5902 93.8791 31.236 93.8821 31.9809C93.8761 31.9749 93.8671 31.9689 93.8611 31.9629C93.8491 31.9268 93.8371 31.8878 93.8221 31.8517C93.6208 31.242 93.3835 30.6472 93.1072 30.0645C93.1072 30.0585 93.1132 30.0525 93.1132 30.0465ZM94.1555 44.2812C94.2726 44.1851 94.3928 44.092 94.5129 43.9989C94.4468 44.2602 94.3868 44.5245 94.3177 44.7859C94.1224 45.0742 93.9362 45.3686 93.7319 45.654C93.8581 45.1914 94.0023 44.7348 94.1555 44.2812ZM94.0443 37.0092C94.1044 36.7569 94.1645 36.5075 94.2245 36.2552C94.2456 36.1591 94.2666 36.063 94.2906 35.9669C94.3507 36.2612 94.4108 36.5556 94.4709 36.85C94.3177 36.874 94.1765 36.9281 94.0443 37.0092ZM95.2969 46.1766C95.2488 47.7806 95.0296 49.3666 94.6421 50.9255C94.3447 51.0697 94.0473 51.2109 93.753 51.3641C94.2666 49.6309 94.7742 47.8978 95.2969 46.1766ZM94.7021 42.8605C94.7772 42.6893 94.8403 42.512 94.9244 42.3408C94.8914 42.485 94.8493 42.6322 94.8163 42.7764C94.7772 42.8034 94.7412 42.8334 94.7021 42.8605ZM96.222 50.2046C96.213 50.2106 96.201 50.2166 96.192 50.2197C96.4143 49.8021 96.6756 49.4116 96.973 49.0452C97.3905 50.7753 96.4593 52.5415 96.0268 54.2056C95.4651 55.6895 95.0266 57.2484 94.3507 58.6902C94.2636 58.6181 94.1705 58.6121 94.0714 58.6722C94.0383 58.6932 94.0053 58.7142 93.9692 58.7353C94.5129 56.7738 95.0115 54.7974 95.4441 52.8059C96.5825 51.325 97.0751 50.2797 96.222 50.2046ZM95.7835 51.2499C95.8165 51.1238 95.8586 51.0006 95.9036 50.8775C95.9938 50.8354 96.0839 50.7844 96.174 50.7423C96.168 50.7483 96.171 50.7453 96.174 50.7453C96.174 50.7483 96.174 50.7483 96.174 50.7513C96.0508 50.9225 95.9097 51.0817 95.7835 51.2499ZM96.8198 48.3423C96.8258 48.3693 96.8318 48.3994 96.8378 48.4264C96.5495 48.5406 96.3993 48.8289 96.2461 49.0812C96.2851 48.8529 96.3242 48.6247 96.3572 48.3964C96.4143 47.9969 96.4623 47.5974 96.4924 47.1979C96.5224 47.2129 96.5555 47.2219 96.5885 47.2279C96.6636 47.6004 96.7417 47.9698 96.8198 48.3423ZM96.7387 41.3766C97.0601 43.7195 97.2463 45.9784 97.4175 48.3573C97.4115 48.3513 97.4025 48.3483 97.3965 48.3423C96.7988 46.0685 96.9309 43.7075 96.7387 41.3766ZM96.5915 56.3954C96.2881 57.2184 95.9517 58.0234 95.5853 58.8194C95.5762 58.8434 95.5642 58.8644 95.5552 58.8885C95.6093 58.7383 95.6603 58.5911 95.7144 58.4409C95.8856 57.9483 96.0719 57.4617 96.2341 56.9631C96.3122 56.7528 96.4744 56.5846 96.5915 56.3954ZM92.7107 54.8244C92.987 53.9293 93.2603 53.0312 93.5277 52.13C93.8401 51.9498 94.1555 51.7756 94.4709 51.6044C94.3027 52.2472 94.1134 52.884 93.9092 53.5208C93.5157 53.9623 93.1192 54.3979 92.7107 54.8244ZM93.8431 59.6454C93.771 59.7716 93.7019 59.8947 93.6238 60.0179C93.6448 59.9428 93.6628 59.8677 93.6839 59.7956C93.7379 59.7445 93.789 59.6965 93.8431 59.6454ZM88.1119 31.6054C88.5264 31.263 88.944 30.9176 89.3555 30.5721C89.2984 30.7283 89.2413 30.8845 89.1873 31.0407C88.8268 31.233 88.4724 31.4072 88.1119 31.6054ZM88.8779 31.9599C88.5925 32.846 88.3342 33.7411 88.0969 34.6422C88.0789 34.6602 88.0609 34.6753 88.0428 34.6933C88.0068 33.9664 87.9677 33.2395 87.9347 32.5126C88.2471 32.3293 88.5595 32.1401 88.8779 31.9599ZM90.6261 39.4062C90.2536 39.6435 89.8751 39.8717 89.4997 40.1C89.6108 39.6254 89.7249 39.1508 89.8391 38.6793C90.2926 38.1987 90.7762 37.688 91.2508 37.1744C91.0436 37.9163 90.8333 38.6612 90.6261 39.4062ZM91.0256 42.7824C90.9535 43.0317 90.8724 43.281 90.8003 43.5303C90.8483 43.317 90.8964 43.1038 90.9445 42.8905C90.9715 42.8545 90.9985 42.8184 91.0256 42.7824ZM90.3137 40.5205C90.1154 41.2324 89.9112 41.9443 89.7159 42.6562C89.6589 42.7223 89.6018 42.7914 89.5447 42.8575C89.4997 42.2507 89.4726 41.659 89.4756 41.0883C89.758 40.902 90.0343 40.7098 90.3137 40.5205ZM89.2864 35.4532C89.2654 35.4682 89.2443 35.4803 89.2233 35.4923C89.3134 35.1859 89.4065 34.8825 89.4997 34.5761C89.5087 34.5641 89.5177 34.5521 89.5297 34.5401C89.4456 34.8435 89.3645 35.1498 89.2864 35.4532ZM88.3672 30.2117C88.3672 30.2027 88.3702 30.1907 88.3733 30.1816C88.5685 29.2835 88.8298 28.4004 89.0941 27.5173C89.2714 27.7907 89.4546 28.061 89.6408 28.3313C89.767 28.5176 89.8901 28.7068 90.0193 28.893C89.4636 29.3256 88.9139 29.7701 88.3672 30.2117ZM89.5087 51.1448C89.4065 51.271 89.3044 51.4001 89.2023 51.5263C89.5177 50.1055 89.8931 48.6967 90.2926 47.294C90.3677 47.2399 90.4398 47.1829 90.5149 47.1288C90.1845 48.4685 89.8391 49.8051 89.5087 51.1448ZM90.0944 54.2176C89.797 55.2269 89.5027 56.2362 89.1993 57.2454C89.1963 57.2424 89.1933 57.2364 89.1903 57.2334C89.4426 56.2722 89.6739 55.305 89.9022 54.3348C89.9652 54.2957 90.0313 54.2567 90.0944 54.2176ZM90.542 51.5563C90.7012 51.3611 90.8634 51.1568 91.0316 50.9496C90.8183 51.7035 90.611 52.4574 90.3948 53.2084C90.3047 53.2564 90.2176 53.3045 90.1304 53.3526C90.2686 52.7548 90.4068 52.1571 90.542 51.5563ZM90.8513 45.7861C90.8003 45.8252 90.7462 45.8642 90.6921 45.9033C91.0045 44.8309 91.3229 43.7586 91.6293 42.6862C91.359 43.7165 91.1097 44.7528 90.8513 45.7861ZM91.4731 40.5626C91.5482 40.2292 91.6233 39.8928 91.7014 39.5593C91.8306 39.4662 91.9567 39.3701 92.0859 39.277C91.9988 39.5624 91.9147 39.8477 91.8276 40.1331C91.7104 40.2742 91.5933 40.4184 91.4731 40.5626ZM91.8876 46.0715C92.0829 45.9213 92.2781 45.7681 92.4734 45.6119C92.2421 46.51 92.0048 47.4081 91.7645 48.3033C91.5482 48.5826 91.3259 48.8589 91.1067 49.1383C91.353 48.111 91.6143 47.0897 91.8876 46.0715ZM92.2901 51.4602C92.5635 50.4149 92.8248 49.3666 93.0801 48.3183C93.2033 48.1561 93.3234 47.9939 93.4436 47.8347C93.023 49.2284 92.5845 50.6161 92.146 52.0009C92.194 51.8206 92.2421 51.6404 92.2901 51.4602ZM92.8068 44.3083C92.6266 44.4464 92.4463 44.5846 92.2661 44.7228C92.6926 43.275 93.1702 41.8452 93.7379 40.4424C93.4436 41.7371 93.1312 43.0227 92.8068 44.3083ZM92.4223 38.1987C92.2601 38.3128 92.0979 38.4239 91.9327 38.5351C91.9747 38.3518 92.0168 38.1716 92.0558 37.9884C92.2331 37.2194 92.4133 36.4505 92.5905 35.6815C92.975 35.237 93.3264 34.8134 93.6208 34.4289C93.2183 35.6845 92.8158 36.9401 92.4223 38.1987ZM91.7645 35.3361C91.2719 35.8467 90.7793 36.3574 90.2716 36.856C90.3888 36.3844 90.5149 35.9158 90.6351 35.4442C91.0856 35.1438 91.5362 34.8435 91.9868 34.5431C91.9117 34.8074 91.8396 35.0717 91.7645 35.3361ZM90.3858 31.8668C90.3377 31.9358 90.2987 32.0109 90.2506 32.08C90.3557 31.7346 90.4639 31.3892 90.569 31.0437C90.6231 31.0167 90.6771 30.9836 90.7312 30.9566C90.611 31.26 90.4939 31.5604 90.3858 31.8668ZM90.4909 27.9829C90.4669 28.022 90.4398 28.061 90.4188 28.1001C90.0674 27.6104 89.743 27.1208 89.4095 26.6132C89.8631 26.9646 90.2926 27.3431 90.7042 27.7426C90.6231 27.8147 90.554 27.8958 90.4909 27.9829ZM88.8659 25.2705C88.6135 25.0783 88.3642 24.88 88.1149 24.6818C88.154 24.5286 88.187 24.3724 88.2141 24.2192C88.9259 24.868 89.5567 25.6039 90.1785 26.3369C89.749 25.9734 89.3104 25.619 88.8659 25.2705ZM88.5234 26.6462C88.2591 27.4933 88.0128 28.3464 87.7725 29.2024C87.7335 28.4395 87.6914 27.6735 87.6433 26.9076C87.6313 26.8325 87.6223 26.7544 87.6163 26.6763C87.7034 26.3399 87.7905 26.0034 87.8776 25.664C88.0969 25.9914 88.3102 26.3188 88.5234 26.6462ZM88.0218 48.886C87.5682 50.5591 87.1147 52.2322 86.6581 53.9052C86.9224 52.3313 87.2228 50.7633 87.5262 49.1984C87.6914 49.0932 87.8566 48.9941 88.0218 48.886ZM87.5953 23.7236C87.5652 23.7626 87.5382 23.8047 87.5112 23.8497C87.4541 23.7656 87.394 23.6845 87.3309 23.6034C87.3039 23.5704 87.2799 23.5404 87.2529 23.5073H87.2559C87.334 23.5464 87.409 23.5884 87.4841 23.6365C87.5232 23.6635 87.5622 23.6905 87.5983 23.7176C87.5983 23.7206 87.5953 23.7206 87.5953 23.7236ZM87.2799 42.5361C87.337 42.497 87.394 42.458 87.4541 42.4189C87.4931 42.8214 87.5322 43.2119 87.5742 43.5934C87.4421 44.2993 87.3039 45.0051 87.1657 45.708C86.8774 46.0595 86.592 46.4109 86.3067 46.7653C86.601 45.3476 86.9254 43.9388 87.2799 42.5361ZM86.7662 40.2923C86.6341 40.4214 86.5019 40.5536 86.3728 40.6858C86.3908 40.0249 86.4178 39.3671 86.4418 38.7063C86.6701 38.3999 86.9074 38.0995 87.1327 37.7901C87.1447 38.0244 87.1567 38.2617 87.1687 38.502C87.0336 39.0968 86.9014 39.6945 86.7662 40.2923ZM86.8473 31.4222C86.8654 31.1939 86.8714 30.9686 86.8924 30.7433C86.8984 30.8695 86.9044 31.0888 86.9104 31.3711C86.8894 31.3862 86.8684 31.4042 86.8473 31.4222ZM86.9375 25.5529C86.7572 25.5859 86.6551 25.691 86.6311 25.8743C86.586 26.2708 86.553 26.6673 86.5139 27.0638C86.4418 27.3431 86.3667 27.6195 86.2947 27.8958C86.3397 27.6255 86.3878 27.3551 86.4268 27.0848C86.5109 26.5261 86.61 25.9704 86.6761 25.4057C86.7122 25.1113 86.7482 24.817 86.7843 24.5196C86.8984 24.6337 87.0216 24.7449 87.1477 24.85C87.0726 25.0843 87.0095 25.3186 86.9375 25.5529ZM87.0967 55.9148C87.1267 55.8997 87.1537 55.8847 87.1838 55.8727C86.8864 57.5608 86.595 59.2489 86.3577 60.946C86.3577 60.9821 86.3667 61.0211 86.3698 61.0602C86.2646 61.1683 86.1625 61.2764 86.0574 61.3846C86.3908 59.5643 86.7122 57.732 87.0967 55.9148ZM86.583 66.4159C86.3878 66.6802 86.1925 66.9445 86.0003 67.2088C85.8141 67.296 85.6519 67.3711 85.4566 67.4642H85.4596C85.8321 67.1157 86.2076 66.7643 86.583 66.4159ZM85.7059 63.2529C85.7149 63.2109 85.7239 63.1658 85.7299 63.1237C85.751 63.1027 85.775 63.0787 85.796 63.0547C85.766 63.1207 85.736 63.1868 85.7059 63.2529ZM85.0391 62.4419C84.8859 62.6071 84.7357 62.7783 84.5855 62.9435C84.976 61.3005 85.3725 59.6574 85.6909 58.0024C85.802 58.0024 85.8952 57.9633 85.9703 57.8822C85.6579 59.4021 85.3485 60.925 85.0391 62.4419ZM86.0273 68.0018C86.3547 67.8276 86.6821 67.6564 87.0126 67.4912C86.592 68.17 86.1475 68.8309 85.6789 69.4767C85.3335 69.717 84.988 69.9543 84.6426 70.1916C85.0061 69.4136 85.4957 68.6987 86.0273 68.0018ZM86.3908 65.2804C86.5169 65.0161 86.6401 64.7518 86.7542 64.4814C87.0756 64.7338 87.388 64.4063 87.4571 64.088C87.4391 64.1841 87.4241 64.2832 87.406 64.3793C87.0696 64.6797 86.7302 64.9801 86.3908 65.2804ZM87.8836 65.5418C87.9197 65.6319 87.9768 65.704 88.0609 65.758C87.9257 65.9863 87.7875 66.2116 87.6524 66.4369C87.4421 66.533 87.2438 66.6231 87.0156 66.7282C87.3189 66.3378 87.6163 65.9443 87.8836 65.5418ZM87.8987 51.9228C87.8746 51.9378 87.8506 51.9558 87.8266 51.9738C87.9107 51.6584 87.9918 51.343 88.0729 51.0247C88.0158 51.325 87.9557 51.6254 87.8987 51.9228ZM87.7815 47.8617C87.8596 47.4742 87.9497 47.0897 88.0308 46.7023C88.0398 46.6902 88.0488 46.6782 88.0579 46.6662C88.1299 46.9936 88.211 47.285 88.2921 47.5433C88.1239 47.6514 87.9557 47.7596 87.7815 47.8617ZM88.2891 38.8024C88.2891 38.7844 88.2861 38.7664 88.2861 38.7513C88.4874 38.0334 88.6917 37.3155 88.9019 36.6007C88.941 36.5766 88.977 36.5496 89.0161 36.5226C88.8568 37.1924 88.7037 37.8622 88.5625 38.5351C88.4694 38.6222 88.3823 38.7123 88.2891 38.8024ZM88.7577 43.7916C88.7457 43.6865 88.7307 43.5844 88.7187 43.4792C88.8118 43.0647 88.8959 42.6502 88.989 42.2357C88.998 42.6562 89.007 43.0737 89.007 43.4943C88.9259 43.5934 88.8418 43.6925 88.7577 43.7916ZM88.9019 53.5688C88.8569 53.743 88.8148 53.9203 88.7697 54.0945C88.7487 54.1065 88.7247 54.1185 88.7037 54.1305C88.7247 53.9954 88.7487 53.8632 88.7728 53.728C88.8148 53.677 88.8569 53.6259 88.9019 53.5688ZM90.2326 63.0126C90.2536 62.9916 90.2746 62.9706 90.2987 62.9525C89.9742 63.8236 89.6709 64.6977 89.4035 65.5778C89.2473 65.6349 89.1152 65.725 89.004 65.8481C88.986 65.8542 88.965 65.8632 88.947 65.8722C89.4336 64.947 89.9803 64.0339 90.2326 63.0126ZM90.3617 67.9868C90.4458 67.7465 90.563 67.5242 90.7132 67.32C90.608 67.6324 90.5029 67.9448 90.3978 68.2572C90.3047 68.3893 90.2176 68.5215 90.1244 68.6506C90.2055 68.4314 90.2836 68.2091 90.3617 67.9868ZM90.2866 61.8952C90.3077 61.8381 90.3287 61.7811 90.3497 61.727C90.5029 61.6339 90.6591 61.5378 90.8123 61.4447C90.6351 61.5918 90.4639 61.748 90.2866 61.8952ZM90.7432 60.6967C91.2538 59.315 91.7284 57.9183 92.179 56.5155C92.5545 56.119 92.9239 55.7225 93.2784 55.335C92.6596 57.0261 91.9687 58.6992 91.2989 60.3723C91.1127 60.4804 90.9294 60.5886 90.7432 60.6967ZM93.5217 32.8129C93.4256 32.87 93.3264 32.9301 93.2303 32.9902C93.2634 32.852 93.2934 32.7138 93.3294 32.5756C93.3805 32.6177 93.4346 32.6567 93.4916 32.6988C93.5006 32.7348 93.5127 32.7739 93.5217 32.8129ZM93.3775 33.6179C93.2483 33.7651 93.1072 33.9003 92.975 34.0445C92.99 33.9814 93.008 33.9183 93.023 33.8552C93.1402 33.7741 93.2603 33.696 93.3775 33.6179ZM92.7677 30.7704C92.8338 30.9176 92.9179 31.0527 92.978 31.1999C92.975 31.2029 92.975 31.2029 92.975 31.2059C92.8729 31.1098 92.7858 31.0017 92.6896 30.9025C92.7167 30.8575 92.7407 30.8154 92.7677 30.7704ZM92.5875 28.0159C92.6055 28.049 92.6266 28.082 92.6446 28.1181C92.6206 28.088 92.5935 28.058 92.5695 28.028L92.5875 28.0159ZM92.6896 32.041C92.5395 32.5546 92.4013 33.0713 92.2541 33.5879C91.8005 33.8733 91.344 34.1646 90.8904 34.453C91.0586 33.8102 91.2238 33.1644 91.392 32.5216C91.6834 32.1912 91.9567 31.8698 92.203 31.5604C92.2841 31.6415 92.3622 31.7316 92.4463 31.8127C92.5244 31.8878 92.6055 31.9659 92.6896 32.041ZM90.8333 30.1756C90.8483 30.1276 90.8634 30.0825 90.8754 30.0345C90.8994 30.0615 90.9204 30.0915 90.9415 30.1186C90.9054 30.1366 90.8694 30.1576 90.8333 30.1756ZM91.1607 29.1153C91.3019 29.0042 91.4431 28.89 91.5873 28.7789C91.7194 28.9531 91.8456 29.1333 91.9657 29.3166C91.8816 29.4517 91.7975 29.5899 91.7134 29.7281C91.6984 29.7341 91.6834 29.7431 91.6684 29.7491C91.4971 29.5388 91.3259 29.3316 91.1607 29.1153ZM92.164 30.3439C92.146 30.3198 92.1249 30.3018 92.1039 30.2778C92.1129 30.2627 92.1219 30.2507 92.1309 30.2357C92.194 30.2057 92.2571 30.1756 92.3232 30.1456C92.2721 30.2117 92.215 30.2748 92.164 30.3439ZM85.5107 21.3596C87.5472 22.1466 89.4095 23.237 91.0976 24.6277C90.9625 24.7238 90.9084 24.856 90.9354 25.0182C91.2118 25.8412 91.7465 26.5772 92.209 27.3341C92.164 27.3641 92.1189 27.3942 92.0739 27.4242C91.1968 26.3489 90.3017 25.2855 89.3435 24.2823C88.6766 23.6575 87.9587 22.8375 87.0065 22.7233C87.0366 22.6332 87.0126 22.5521 86.9435 22.4891C86.9134 22.456 86.8894 22.42 86.8624 22.3899C86.7873 22.1737 86.61 22.0265 86.4358 22.1016C86.3427 22.1376 86.2706 22.2007 86.2196 22.2878C85.9973 22.0145 85.742 21.7712 85.4566 21.5639C85.4746 21.4948 85.4927 21.4257 85.5107 21.3596ZM85.4866 37.0302C85.4806 36.5135 85.4746 35.9939 85.4656 35.4743C85.5918 34.9126 85.7239 34.3509 85.8531 33.7922C85.9102 33.7531 85.9672 33.7141 86.0243 33.678C85.9853 34.489 85.9462 35.3 85.9132 36.114C85.8471 36.3543 85.781 36.5977 85.7119 36.838C85.6368 36.901 85.5617 36.9671 85.4866 37.0302ZM85.6819 43.6024C85.6699 44.0049 85.6609 44.4074 85.6488 44.8099C85.6278 44.882 85.6068 44.9511 85.5888 45.0202C85.5828 44.5726 85.5768 44.125 85.5708 43.6745C85.6068 43.6505 85.6458 43.6264 85.6819 43.6024ZM85.2463 22.3599C85.3905 22.483 85.5227 22.6182 85.6458 22.7594C85.5557 23.0147 85.4776 23.273 85.3905 23.5283C85.4446 23.1048 85.5017 22.6633 85.2253 22.45C85.2313 22.42 85.2403 22.3899 85.2463 22.3599ZM85.2764 52.6016C85.3365 52.2502 85.3935 51.9048 85.4506 51.5563C85.4686 51.4452 85.4897 51.337 85.5047 51.2289C85.8561 51.1328 85.9703 50.6161 86.0183 50.0785C86.0784 50.0484 86.1355 50.0184 86.1955 49.9854C85.8801 51.1808 85.5317 52.3643 85.1142 53.5268C85.1652 53.2174 85.2223 52.911 85.2764 52.6016ZM84.7868 21.1073C84.7838 21.1223 84.7778 21.1344 84.7748 21.1494C84.6035 21.0713 84.4293 21.0082 84.2491 20.9601C84.4293 21.0082 84.6096 21.0533 84.7868 21.1073ZM83.9848 45.3295C84.144 44.9541 84.1229 44.5366 84.189 44.1401C84.195 44.3293 84.2071 44.5185 84.2131 44.7108C84.0749 45.3866 83.9457 46.0625 83.8196 46.7413C83.7024 46.4019 83.5582 46.0775 83.39 45.7621C83.393 45.7561 83.396 45.7471 83.399 45.7411C83.6724 45.714 83.8676 45.5759 83.9848 45.3295ZM83.6363 36.2793C83.7295 35.8768 83.8196 35.4743 83.9097 35.0717C83.9157 35.0687 83.9187 35.0657 83.9247 35.0627C83.8977 35.5614 83.8676 36.06 83.8376 36.5586C83.7835 36.8259 83.7234 37.0963 83.6694 37.3636C83.6604 37.0032 83.6484 36.6427 83.6363 36.2793ZM84.2101 27.3731C83.9307 28.3944 83.6694 29.4187 83.4291 30.452C83.4111 30.0885 83.399 29.7251 83.381 29.3616C83.6634 28.3223 83.9457 27.28 84.2251 26.2407C84.2161 26.6192 84.2101 26.9977 84.2101 27.3731ZM83.2398 26.2257C83.2368 26.1807 83.2368 26.1356 83.2338 26.0905C83.384 25.1384 83.9037 22.7354 83.6393 21.5909C83.9607 21.63 84.2611 21.7231 84.5465 21.8733C84.0959 23.3181 83.6784 24.7749 83.2398 26.2257ZM84.4263 47.8978C84.4413 48.066 84.4594 48.2312 84.4774 48.3964C84.4083 48.5766 84.3392 48.7538 84.2671 48.931C84.2581 48.871 84.2491 48.8139 84.2401 48.7538C84.3002 48.4685 84.3632 48.1831 84.4263 47.8978ZM84.4263 50.0124C84.4834 50.1776 84.5825 50.3098 84.7267 50.4089C84.6636 50.7333 84.6005 51.0577 84.5405 51.3851C84.5044 50.9405 84.4624 50.496 84.4083 50.0544C84.4143 50.0394 84.4203 50.0244 84.4263 50.0124ZM82.2156 36.2672C82.0594 37.0813 81.9092 37.8953 81.759 38.7093C81.741 38.7093 81.7199 38.7123 81.6989 38.7183C81.765 37.9764 81.8341 37.2344 81.8942 36.4925C82.0023 36.4174 82.1074 36.3423 82.2156 36.2672ZM82.0083 35.1468C82.0353 34.8465 82.0594 34.5461 82.0864 34.2457C82.1615 33.9483 82.2396 33.654 82.3177 33.3596C82.3327 33.8703 82.3417 34.3839 82.3447 34.9005C82.2306 34.9816 82.1225 35.0657 82.0083 35.1468ZM81.7109 29.0252C81.2874 30.8665 80.8158 32.7018 80.3172 34.5311C80.3022 34.2247 80.2872 33.9183 80.2691 33.6119C80.8399 31.6415 81.3595 29.659 81.8281 27.6645C81.789 28.1181 81.747 28.5716 81.7109 29.0252ZM79.9117 27.271C79.9057 27.1629 79.8997 27.0517 79.8907 26.9436C80.176 25.682 80.5425 23.9128 80.7197 22.4921C81.0141 22.3629 81.3084 22.2427 81.6028 22.1166C81.0591 23.8377 80.4614 25.5469 79.9117 27.271ZM80.197 21.2665C80.164 21.5399 80.1159 21.8102 80.0769 22.0805C80.0318 22.1046 79.9838 22.1256 79.9387 22.1466C80.0228 21.8553 80.1129 21.5609 80.197 21.2665ZM79.9297 20.5396C79.9207 20.5516 79.9117 20.5576 79.9027 20.5697C79.8907 20.5576 79.8817 20.5546 79.8726 20.5396C79.8907 20.5396 79.9117 20.5396 79.9297 20.5396ZM79.6984 22.9636C79.7855 22.9216 79.8756 22.8825 79.9628 22.8405C79.8847 23.3181 79.7975 23.7927 79.7044 24.2673C79.6804 23.9188 79.6474 23.5734 79.6203 23.225C79.6444 23.1379 79.6714 23.0508 79.6984 22.9636ZM79.2959 38.2737C78.9595 39.5023 78.6321 40.7308 78.3137 41.9623C78.3167 41.2775 78.3197 40.5956 78.3227 39.9108C78.4939 39.4092 78.6591 38.9045 78.8183 38.3939C78.9565 37.9614 79.0857 37.5228 79.2208 37.0873C79.2449 37.4808 79.2689 37.8772 79.2959 38.2737ZM78.7282 26.2437C78.7402 26.2047 78.7522 26.1626 78.7643 26.1236C78.7913 26.7694 78.8153 27.4122 78.8394 28.058C78.7462 28.4094 78.6561 28.7609 78.56 29.1093C78.6051 28.1541 78.6591 27.2019 78.7282 26.2437ZM78.3257 20.7048C78.3588 20.6988 78.3918 20.6958 78.4248 20.6928C78.4038 20.855 78.3918 21.0172 78.3858 21.1824C78.3467 21.5939 78.3227 22.0085 78.2897 22.423C77.8001 23.8828 77.4096 25.637 77.2654 26.0185C77.0972 26.6192 76.926 27.2169 76.7548 27.8177C76.7067 27.289 76.6496 26.7634 76.5956 26.2377C77.0281 24.8019 77.4606 23.3631 77.9022 21.9304C78.0494 21.5188 78.1665 21.1163 78.3257 20.7048ZM76.8238 21.0352C76.8208 21.0292 76.8148 21.0262 76.8118 21.0172C77.0551 20.9571 77.3014 20.9091 77.5447 20.858C77.4576 21.1314 77.3855 21.4107 77.2864 21.5669C76.974 22.444 76.6646 23.3181 76.3583 24.1952C76.3192 23.8768 76.2892 23.5584 76.2471 23.24C76.4484 22.5071 76.6436 21.7712 76.8238 21.0352ZM76.2922 42.1396C76.187 42.6051 76.0819 43.0707 75.9768 43.5363C75.9768 42.9566 75.9738 42.3769 75.9618 41.7971C76.0459 41.5779 76.127 41.3586 76.2081 41.1393C76.2321 41.4757 76.2621 41.8122 76.2922 42.1396ZM75.8416 37.8472C75.8206 37.2194 75.8056 36.5946 75.7966 35.9669C75.8356 35.8377 75.8747 35.7055 75.9137 35.5764C75.9407 36.105 75.9648 36.7178 75.9948 37.3756C75.9437 37.5348 75.8927 37.691 75.8416 37.8472ZM75.9558 21.2725C75.7605 21.651 75.7305 22.1406 75.5893 22.5641C75.5683 22.6392 75.5442 22.7143 75.5262 22.7894C75.3941 22.8645 75.316 22.9727 75.2889 23.1198C75.2589 23.3631 75.2499 23.6064 75.2349 23.8528C74.8354 25.3036 74.4178 26.7484 73.9703 28.1842C73.9012 27.1509 73.8441 26.1176 73.8111 25.0843C74.3758 23.7897 75.0246 22.5371 75.7605 21.3326C75.8236 21.3116 75.8927 21.2936 75.9558 21.2725ZM75.0156 31.5393C75.0126 32.2933 75.0126 33.0502 75.0186 33.8072C74.8804 34.2697 74.7392 34.7293 74.5981 35.1889C74.538 34.6362 74.4809 34.0835 74.4268 33.5278C74.6221 32.864 74.8173 32.2002 75.0156 31.5393ZM74.1445 30.446C74.1355 30.3258 74.1265 30.2057 74.1145 30.0885C74.4509 29.0913 74.7753 28.091 75.0937 27.0938C75.0877 27.3431 75.0787 27.5894 75.0696 27.8387C74.7633 28.7098 74.4539 29.5749 74.1445 30.446ZM75.0847 38.3038C75.0967 38.8955 75.1057 39.4843 75.1177 40.073C75.0696 39.6104 75.0186 39.1478 74.9675 38.6883C75.0066 38.5591 75.0456 38.4329 75.0847 38.3038ZM73.5828 45.3686C73.5047 44.918 73.4236 44.4705 73.3485 44.0169C73.5317 43.4162 73.712 42.8154 73.8952 42.2117C73.9102 42.8454 73.9192 43.4792 73.9222 44.113C73.8081 44.5336 73.6939 44.9511 73.5828 45.3686ZM73.5918 48.6517C73.5558 48.6667 73.5227 48.6817 73.4867 48.6967C73.4957 48.6667 73.5077 48.6367 73.5167 48.6036C73.5437 48.6247 73.5648 48.6367 73.5918 48.6517ZM71.4051 25.8082C71.3961 25.7061 71.3901 25.6039 71.3841 25.5018C71.8256 24.7869 72.2852 24.078 72.7808 23.3932C72.4294 24.1201 72.0869 24.85 71.7956 25.6009C71.6364 25.619 71.5072 25.688 71.4051 25.8082ZM71.5252 37.7601C71.5162 37.7811 71.5102 37.7992 71.5012 37.8202C71.5102 37.7992 71.5162 37.7781 71.5222 37.7571C71.5252 37.7571 71.5252 37.7571 71.5252 37.7601ZM73.1352 26.7123C73.1593 27.3161 73.1833 27.9228 73.2103 28.5266C73.2344 29.1093 73.2644 29.692 73.2914 30.2748C72.8919 31.4913 72.4834 32.7048 72.0539 33.9123C71.9518 32.849 71.8556 31.7887 71.7655 30.7223C72.174 29.3646 72.6276 28.025 73.1352 26.7123ZM73.3966 32.2182C73.3996 32.3113 73.4056 32.4044 73.4116 32.4945C73.0241 33.5849 72.6336 34.6723 72.2431 35.7566C72.2371 35.7176 72.2341 35.6785 72.2311 35.6395C72.6156 34.501 73.0061 33.3596 73.3966 32.2182ZM72.165 42.497C72.0629 42.7794 71.9608 43.0617 71.8556 43.3411C71.8136 43.1158 71.7715 42.8875 71.7325 42.6622C71.8376 42.3138 71.9427 41.9623 72.0449 41.6139C72.0869 41.9143 72.126 42.2057 72.165 42.497ZM72.0028 48.5315C72.0749 48.7628 72.159 48.9911 72.2521 49.2164C72.0749 49.2945 71.9007 49.3756 71.7265 49.4597C71.8166 49.1503 71.9097 48.8409 72.0028 48.5315ZM72.2131 45.2725C72.171 45.0622 72.135 44.852 72.0959 44.6417C72.1861 44.4074 72.2732 44.1761 72.3633 43.9418C72.3903 44.1431 72.4143 44.3353 72.4414 44.5245C72.3633 44.7739 72.2912 45.0232 72.2131 45.2725ZM72.4384 37.4868C72.4233 37.3396 72.4053 37.1954 72.3873 37.0482C72.6486 36.3363 72.91 35.6214 73.1653 34.9095C72.931 35.7716 72.6847 36.6277 72.4384 37.4868ZM73.6278 36.2432C73.6609 36.8169 73.6909 37.3906 73.724 37.9644C73.4356 38.8475 73.1412 39.7276 72.8379 40.6077C72.7838 40.2232 72.7327 39.8417 72.6817 39.4602C72.9971 38.3879 73.3125 37.3155 73.6278 36.2432ZM73.4056 41.0222C73.3125 41.4457 73.1893 41.8632 73.0782 42.2807C73.0662 42.2087 73.0541 42.1336 73.0451 42.0585C73.1653 41.713 73.2914 41.3706 73.4056 41.0222ZM72.8589 22.0835C73.0541 21.6901 73.4897 21.4137 73.5107 20.9391C73.709 20.873 73.9102 20.819 74.1115 20.7589C73.7991 20.9631 73.5918 21.1854 73.5738 21.4317C73.2344 21.7862 72.928 22.1707 72.6186 22.5401L72.8589 22.0835ZM70.6511 23.279C70.7292 23.0898 70.8554 22.9096 70.8464 22.6933C70.8464 22.6933 70.8464 22.6903 70.8464 22.6873C70.8554 22.6753 70.8674 22.6633 70.8764 22.6513C71.0717 22.429 71.3029 22.1797 71.5463 21.9394C71.2429 22.3809 70.9245 22.8165 70.6511 23.279ZM67.7075 34.8795C67.7195 35.1468 67.7345 35.4142 67.7465 35.6815C67.2329 36.9581 66.7312 38.2437 66.2567 39.5353C66.2356 39.3971 66.2176 39.262 66.1966 39.1238C66.6682 37.7 67.1698 36.2853 67.7075 34.8795ZM66.524 36.3574C66.53 36.3393 66.536 36.3213 66.542 36.3033C66.8754 35.255 67.2419 34.2127 67.6354 33.1794C67.6384 33.2815 67.6444 33.3806 67.6474 33.4828C67.2689 34.438 66.8934 35.3962 66.524 36.3574ZM67.9448 39.1689C67.9958 39.9859 68.0439 40.7999 68.0889 41.6169C67.7976 42.7193 67.5092 43.8217 67.2239 44.927C67.0737 44.2903 66.9415 43.6474 66.8214 43.0046C67.1307 41.713 67.5152 40.4334 67.9448 39.1689ZM68.2031 43.8457C68.2061 43.9118 68.2091 43.9779 68.2121 44.0439C68.0799 44.3804 67.9478 44.7168 67.8156 45.0502C67.9508 44.6507 68.0769 44.2482 68.2031 43.8457ZM67.7315 30.5151C67.6234 30.5631 67.5723 30.6442 67.5783 30.7614C67.5783 30.7854 67.5783 30.8124 67.5783 30.8395C67.0887 31.8818 66.5841 32.9151 66.0284 33.9273C66.6021 32.5426 67.1968 31.1669 67.8336 29.8122C68.2571 28.9171 68.6957 28.034 69.1463 27.1509C69.1463 27.1959 69.1493 27.241 69.1493 27.283C69.1493 27.3101 69.1523 27.3371 69.1523 27.3611C68.6867 28.4184 68.2181 29.4698 67.7315 30.5151ZM66.1275 29.9504C66.7312 28.7489 67.2299 27.3972 68.3322 26.5681C67.4131 28.2502 66.4729 29.9233 65.5057 31.5814C65.4156 31.7346 65.3255 31.8908 65.2354 32.044C65.5327 31.3471 65.8181 30.6442 66.1275 29.9504ZM65.4336 29.3977C65.4697 29.3046 65.5057 29.2114 65.5418 29.1153C65.6799 28.7338 65.8391 28.3644 66.0224 28.0039C66.0945 27.9979 66.1635 27.9889 66.2326 27.9739C66.2476 27.9709 66.2627 27.9679 66.2747 27.9649C65.9923 28.4425 65.713 28.9201 65.4336 29.3977ZM67.0647 25.9914C67.0376 26.0695 67.0106 26.1476 66.9836 26.2227C66.9866 26.2197 66.9866 26.2137 66.9896 26.2107C66.8784 26.5201 66.7673 26.8295 66.6531 27.1358C66.6201 27.1539 66.5871 27.1749 66.554 27.1929C66.497 27.223 66.4369 27.253 66.3768 27.277C66.4128 27.2109 66.4459 27.1419 66.4789 27.0728C66.4729 27.0848 66.4669 27.0968 66.4609 27.1088C66.6562 26.7333 66.8574 26.3609 67.0647 25.9914ZM69.0201 25.0813C69.0231 25.0753 69.0291 25.0693 69.0321 25.0633C69.0381 25.0543 69.0411 25.0482 69.0471 25.0392C69.0471 25.0422 69.0441 25.0452 69.0441 25.0482C69.1703 24.88 69.2964 24.7088 69.4196 24.5376C69.2304 24.9071 69.0622 25.2885 68.7167 25.5379C68.8189 25.3847 68.921 25.2285 69.0231 25.0753C69.0231 25.0753 69.0201 25.0783 69.0201 25.0813ZM67.6894 25.7391C67.7345 25.6069 67.7796 25.4748 67.8126 25.3396C67.8727 25.1414 67.9117 24.9401 67.9297 24.7359C68.3893 24.2432 68.8759 23.7747 69.3896 23.3361C68.7768 24.1051 68.2091 24.9071 67.6894 25.7391ZM69.2574 29.3917C69.2634 29.4908 69.2664 29.5929 69.2724 29.692C68.942 30.4039 68.6206 31.1188 68.3172 31.8427C68.3052 31.7496 68.2932 31.6565 68.2842 31.5634C68.5906 30.8305 68.915 30.1066 69.2574 29.3917ZM69.3565 30.8875C69.3745 31.1248 69.3926 31.3621 69.4106 31.5994C69.1222 32.3053 68.8339 33.0112 68.5455 33.7171C68.5155 33.4738 68.4854 33.2305 68.4554 32.9871C68.7468 32.2843 69.0471 31.5844 69.3565 30.8875ZM68.8819 41.5628C68.909 41.7551 68.936 41.9503 68.966 42.1426C68.8699 42.3859 68.7738 42.6262 68.6777 42.8695C68.6657 42.7103 68.6536 42.5541 68.6416 42.3949C68.7227 42.1185 68.8038 41.8422 68.8819 41.5628ZM68.906 36.5226C69.1583 35.8647 69.4106 35.2099 69.6659 34.5581C69.6929 34.8254 69.714 35.0928 69.741 35.3601C69.5217 36.1831 69.3055 37.0062 69.0862 37.8292C69.0261 37.3936 68.966 36.9581 68.906 36.5226ZM69.6479 26.1897C69.6959 26.0996 69.738 26.0094 69.7861 25.9223C69.744 26.0154 69.705 26.1056 69.6629 26.1987C69.6569 26.1957 69.6539 26.1927 69.6479 26.1897ZM69.9573 37.4838C70.0143 38.0334 70.0714 38.5831 70.1285 39.1298C69.9272 39.6615 69.72 40.1931 69.5157 40.7218C69.4677 40.4124 69.4076 40.103 69.3625 39.7906C69.5638 39.0247 69.762 38.2557 69.9573 37.4838ZM70.0564 30.0104C70.0414 29.8362 70.0234 29.665 70.0113 29.4908C70.1765 29.1454 70.3478 28.8089 70.519 28.4695C70.525 28.5807 70.531 28.6918 70.537 28.8059C70.3778 29.2084 70.2186 29.6109 70.0564 30.0104ZM70.552 32.2993C70.4829 32.5636 70.4108 32.8279 70.3418 33.0923C70.3327 33.0262 70.3267 32.9571 70.3177 32.891C70.3958 32.6928 70.4739 32.4945 70.552 32.2993ZM69.9423 28.3103C69.9392 28.2202 69.9332 28.1301 69.9302 28.04C70.0984 27.7156 70.2787 27.3972 70.4589 27.0788C70.4589 27.1599 70.4649 27.253 70.4679 27.3401C70.2907 27.6615 70.1105 27.9829 69.9423 28.3103ZM70.4559 42.3408C70.51 42.8665 70.561 43.3951 70.6091 43.9208C70.4979 44.3263 70.3928 44.7288 70.2847 45.1343C70.1886 44.6297 70.0864 44.128 69.9963 43.6204C70.1495 43.1939 70.3027 42.7674 70.4559 42.3408ZM70.7833 45.8582C70.7893 45.9213 70.7923 45.9844 70.7983 46.0504C70.7232 46.2277 70.6571 46.4079 70.5821 46.5851C70.579 46.5761 70.579 46.5641 70.576 46.5521C70.6451 46.3208 70.7142 46.0895 70.7833 45.8582ZM70.57 35.0868C70.7082 34.5521 70.8464 34.0174 70.9906 33.4828C71.0837 34.3088 71.1888 35.1529 71.2969 36.0029C71.1498 36.4054 71.0026 36.8049 70.8524 37.2044C70.7533 36.5015 70.6571 35.7926 70.57 35.0868ZM70.558 20.9752C70.552 21.3446 71.1347 21.2275 71.4141 21.1013C71.312 21.1554 71.2128 21.2125 71.1137 21.2695C70.6962 21.5068 70.2937 21.7651 69.9002 22.0445C68.8549 22.1707 68.2121 23.216 67.6083 23.9789C67.1908 23.9158 66.7613 24.1021 66.3287 24.4355C67.5993 23.1108 69.0081 21.9574 70.558 20.9752ZM67.1968 24.4775C67.1037 24.5827 67.0076 24.6908 66.9085 24.7959C66.7703 24.9521 66.6441 25.1203 66.518 25.2855C66.4008 25.2705 66.3047 25.3096 66.2296 25.3997C65.4036 26.5051 64.9861 27.8598 64.4154 29.1123C63.9017 30.1486 63.5323 31.272 63.1448 32.3834C63.1057 32.104 63.0697 31.8247 63.0456 31.5453C63.1388 31.4913 63.1838 31.4132 63.1778 31.305C63.1718 31.1999 63.1207 31.1248 63.0216 31.0828C63.322 30.3979 63.6344 29.7191 63.9678 29.0522C64.8449 27.4362 65.6409 25.5318 67.1968 24.4775ZM64.3282 26.8235C64.5025 26.5832 64.6887 26.3429 64.8749 26.1056C63.6884 27.8748 62.5891 30.3829 61.8321 32.2813C62.3938 30.3378 63.2259 28.5206 64.3282 26.8235ZM61.1082 36.2522C61.5288 34.8945 62.0094 33.5488 62.55 32.2182C62.5951 32.6267 62.6642 33.0292 62.7603 33.4257C62.3398 34.5221 61.8411 35.5704 61.0962 36.4685C61.0992 36.3964 61.1052 36.3243 61.1082 36.2522ZM61.1172 37.646C61.0992 37.6369 61.0782 37.6339 61.0602 37.6279C61.0602 37.5288 61.0602 37.4327 61.0632 37.3336C61.0872 37.3216 61.1112 37.3095 61.1353 37.2945C61.1443 37.3756 61.1503 37.4567 61.1593 37.5348C61.1473 37.5709 61.1323 37.6069 61.1172 37.646ZM62.6522 36.3634C62.6492 36.1921 62.6371 36.0209 62.6492 35.8497C62.7002 35.9428 62.7423 36.045 62.7933 36.1381C62.7453 36.2132 62.7002 36.2883 62.6522 36.3634ZM63.2319 35.246C63.2439 35.285 63.2529 35.3241 63.2619 35.3601C63.2289 35.4202 63.1898 35.4803 63.1568 35.5373C63.0967 35.4682 63.0336 35.4022 62.9615 35.3451C63.0607 35.3361 63.1508 35.303 63.2319 35.246ZM63.2499 39.0968C63.1688 38.9015 63.0907 38.7063 63.0216 38.502C63.1418 38.1085 63.2619 37.712 63.3851 37.3186C63.5112 37.5799 63.6494 37.8322 63.7696 38.0965C63.6073 38.4359 63.4361 38.7694 63.2499 39.0968ZM63.7095 40.097C63.8386 39.7125 63.9738 39.3341 64.127 38.9586C64.1931 39.1148 64.2562 39.271 64.3192 39.4272C64.169 39.7516 64.0159 40.073 63.8567 40.3944C63.8086 40.2953 63.7575 40.1961 63.7095 40.097ZM64.2261 41.1483C64.1991 41.0883 64.169 41.0312 64.142 40.9741C64.2081 40.8209 64.2862 40.6707 64.3703 40.5266C64.3222 40.7338 64.2742 40.9381 64.2261 41.1483ZM64.2952 36.916C64.166 36.5075 64.0399 36.099 63.9197 35.6905C64.0519 35.3511 64.1991 35.0207 64.3613 34.6933C64.4154 35.2219 64.4784 35.7506 64.5445 36.2763C64.4634 36.4895 64.3793 36.7028 64.2952 36.916ZM64.7608 38.454C64.7037 38.2587 64.6466 38.0665 64.5866 37.8712C64.6316 37.7781 64.6797 37.688 64.7247 37.5949C64.7578 37.8292 64.7938 38.0635 64.8329 38.3008C64.8088 38.3518 64.7848 38.4029 64.7608 38.454ZM65.0942 42.9115C65.0852 42.8995 65.0792 42.8845 65.0732 42.8725C65.1333 42.6442 65.1933 42.4159 65.2564 42.1876C65.2654 42.1516 65.2744 42.1185 65.2834 42.0825C65.2985 42.1245 65.3135 42.1636 65.3255 42.2026C65.2474 42.4399 65.1693 42.6742 65.0942 42.9115ZM65.3465 32.9361C65.7881 32.2332 66.2597 31.5484 66.7132 30.8635C66.2446 31.8127 65.8331 32.7829 65.4787 33.7801C65.4366 33.4978 65.3916 33.2184 65.3465 32.9361ZM65.767 35.8948C65.755 35.7987 65.74 35.7055 65.728 35.6094C65.8722 35.3391 66.0134 35.0687 66.1545 34.8014C66.0344 35.1679 65.8992 35.5313 65.767 35.8948ZM67.2449 49.1503C66.8694 48.919 66.506 48.6667 66.1545 48.3964C66.1635 48.1981 66.1335 48.0089 66.0614 47.8257C66.4219 47.4292 66.5901 46.8975 66.6832 46.3899C66.7102 46.4439 66.7403 46.531 66.7763 46.6332C66.6952 46.9516 66.6081 47.27 66.524 47.5884C66.503 47.7956 66.6441 48.0479 66.8814 48.0089C66.9836 47.9548 67.0737 47.8887 67.1518 47.8076C67.2299 48.0449 67.317 48.2882 67.4071 48.5225C67.35 48.7358 67.296 48.9431 67.2449 49.1503ZM67.8036 47.1168C67.7766 47.0267 67.7435 46.9366 67.7195 46.8494C67.9057 46.3929 68.0589 45.9063 68.2541 45.5608C68.2331 45.696 68.0379 46.3268 67.8036 47.1168ZM68.2692 48.5616C68.2872 48.5075 68.3022 48.4534 68.3202 48.4024C68.3202 48.5135 68.3262 48.6277 68.3262 48.7388C68.3052 48.6817 68.2872 48.6187 68.2692 48.5616ZM68.4133 38.2978C68.4824 38.7423 68.5455 39.1899 68.6086 39.6374C68.5665 39.7966 68.5245 39.9528 68.4824 40.112C68.4494 39.5053 68.4194 38.9015 68.4133 38.2978ZM69.1793 50.0965C68.945 50.0064 68.7167 49.9103 68.4884 49.8081C68.5996 49.7481 68.7107 49.6189 68.8249 49.4026C68.8969 48.4985 68.924 47.5944 68.9 46.6902C69.0832 46.1646 69.2754 45.6419 69.4617 45.1193C69.5758 45.714 69.6989 46.3058 69.8431 46.8945C69.771 47.1859 69.6899 47.4742 69.6239 47.7656C69.4617 48.4985 69.2634 49.2314 69.1553 49.9703C69.1553 50.0124 69.1643 50.0544 69.1793 50.0965ZM70.9305 49.8712C70.7653 49.9613 70.5911 50.0364 70.4289 50.1325C70.3207 50.2166 70.2817 50.3278 70.3117 50.4599C70.1075 50.4089 69.9092 50.3458 69.708 50.2827C69.7981 50.1926 69.8702 50.0905 69.9182 49.9733C70.0774 49.5979 70.2336 49.2194 70.3928 48.8439C70.4889 49.1473 70.5821 49.4507 70.6902 49.7481C70.7653 49.7991 70.8464 49.8382 70.9335 49.8622C70.9335 49.8652 70.9305 49.8682 70.9305 49.8712ZM70.8314 47.7986C70.8584 47.7355 70.8824 47.6695 70.9095 47.6064C70.9305 47.9068 70.9575 48.2041 70.9755 48.5045C70.9215 48.2702 70.8824 48.0329 70.8314 47.7986ZM71.2249 44.9811C71.2218 44.927 71.2188 44.873 71.2218 44.8369C71.2279 44.87 71.2339 44.906 71.2429 44.9361C71.2369 44.9511 71.2309 44.9661 71.2249 44.9811ZM71.6874 38.9796C71.7205 39.2379 71.7565 39.4933 71.7896 39.7486C71.6724 40.1511 71.5553 40.5566 71.4411 40.9591C71.3901 40.6617 71.339 40.3613 71.2909 40.064C71.4231 39.7035 71.5553 39.3401 71.6874 38.9796ZM71.6604 47.1018C71.6123 47.258 71.5643 47.4141 71.5162 47.5733C71.4832 47.1829 71.4411 46.7864 71.3931 46.4169C71.4261 46.3388 71.4561 46.2607 71.4892 46.1826C71.5433 46.489 71.6003 46.7954 71.6604 47.1018ZM72.4624 50.7213C72.2161 50.7393 71.9668 50.7423 71.7175 50.7303C71.5763 50.7153 71.4381 50.6882 71.2999 50.6642C71.306 50.6612 71.312 50.6492 71.318 50.6432C71.7205 50.517 72.126 50.4029 72.5345 50.2977C72.5105 50.4389 72.4864 50.5801 72.4624 50.7213ZM72.8319 48.4685C72.7207 47.9218 72.6156 47.3751 72.5105 46.8284C72.5645 46.6542 72.6156 46.477 72.6697 46.2998C72.8108 47.4892 72.8829 48.2822 72.8319 48.4685ZM74.4208 50.3038C73.9402 50.484 73.4446 50.6101 72.937 50.6792C72.979 50.505 73.0301 50.3308 73.0782 50.1566C73.5317 50.0454 73.9853 49.9313 74.4359 49.8141C74.4088 49.9763 74.4058 50.1416 74.4208 50.3038ZM74.3998 48.3273C74.6431 47.6725 74.6491 46.4349 74.6101 45.3716C74.6521 45.2605 74.6942 45.1463 74.7362 45.0322C74.7933 45.4467 74.8804 45.8492 75.0937 46.1976C75.1538 46.2727 75.2289 46.3208 75.322 46.3448C75.1748 46.9486 75.0216 47.5463 74.8564 48.1441C74.7062 48.2071 74.553 48.2672 74.3998 48.3273ZM75.2979 49.9223C75.319 49.7961 75.346 49.673 75.367 49.5498C75.8356 49.4086 76.2952 49.2434 76.7457 49.0512C76.2832 49.3756 75.7996 49.667 75.2979 49.9223ZM77.1302 47.0116C76.995 47.1078 76.8629 47.2099 76.7277 47.3C76.4093 47.4652 76.0789 47.6034 75.7515 47.7476C76.0068 46.7353 76.3072 45.7381 76.6376 44.7468C76.7968 45.5698 76.995 46.2006 77.2414 46.516C77.2053 46.6812 77.1633 46.8464 77.1302 47.0116ZM77.752 31.8758C77.5718 32.4645 77.3885 33.0532 77.2023 33.639C77.1603 33.0112 77.1182 32.3804 77.0762 31.7526C77.3345 30.8965 77.5958 30.0435 77.8511 29.1904C77.8121 30.0855 77.779 30.9806 77.752 31.8758ZM78.1154 46.2968C78.1875 45.9453 78.2356 45.5909 78.2626 45.2334C78.6651 43.9809 79.1067 42.7403 79.5482 41.5028C79.5482 41.5178 79.5482 41.5328 79.5512 41.5478C79.2419 43.0467 78.8424 44.5215 78.3527 45.9693C78.3648 46.0174 78.3768 46.0414 78.3858 46.0805C78.2957 46.1526 78.2056 46.2277 78.1154 46.2968ZM79.1938 45.4287C79.4191 44.8249 79.6444 44.0469 79.8216 43.3951C79.8877 43.5453 79.9898 43.6715 80.122 43.7706C80.1039 43.8277 80.0889 43.8817 80.0709 43.9358C80.0409 44.0169 80.0409 44.098 80.0739 44.1761C80.1069 44.2572 80.164 44.3143 80.2451 44.3443C80.2992 44.3563 80.3532 44.3563 80.4073 44.3443C80.0108 44.7168 79.6053 45.0802 79.1938 45.4287ZM80.7768 43.9929C80.7617 44.0079 80.7437 44.0229 80.7287 44.0379C80.7617 43.9628 80.7888 43.8877 80.8128 43.8097L80.7768 43.9929ZM80.6806 40.6647C80.6656 40.4575 80.6566 40.2502 80.6446 40.043C80.7047 39.7906 80.7648 39.5353 80.8248 39.28C80.7738 39.7426 80.7377 40.2052 80.6806 40.6647ZM82.1495 44.1341C81.9693 44.086 81.771 44.2061 81.5788 44.3683C81.5908 44.3293 81.6028 44.2903 81.6148 44.2512C81.8491 44.0199 82.0834 43.7856 82.3117 43.5513C82.2636 43.7285 82.2096 43.9268 82.1495 44.1341ZM82.0624 42.7043C82.1705 42.3168 82.2696 41.9233 82.3718 41.5328C82.3868 41.8001 82.3958 42.0705 82.4138 42.3348C82.2997 42.461 82.1795 42.5811 82.0624 42.7043ZM81.9663 20.9511C81.9392 21.0382 81.9092 21.1253 81.8852 21.2155C81.8431 21.2365 81.801 21.2485 81.759 21.2695C81.4376 21.4227 81.1192 21.5789 80.7978 21.7351C80.8368 21.2185 80.8338 20.7949 80.7738 20.5156C81.9092 20.5156 83.0296 20.6538 84.135 20.9301C83.6243 20.81 83.1167 20.813 82.6121 20.9421C82.5219 20.6478 82.0564 20.5757 81.9663 20.9511ZM82.9515 22.2277C82.8854 22.7744 82.7863 23.3151 82.7022 23.8618C82.6811 23.8558 82.6571 23.8528 82.6361 23.8497C82.7382 23.3091 82.8584 22.7714 82.9515 22.2277ZM84.6246 55.1758C85.0721 55.332 85.5017 54.4339 85.6128 54.0374C85.0121 56.8699 84.4113 59.6965 83.7415 62.514C83.2398 64.6497 82.7202 66.7823 82.1795 68.906C81.8491 69.1763 81.5097 69.4346 81.1763 69.699C83.2969 65.0882 84.4473 60.2492 84.6246 55.1758ZM84.5134 65.0431C84.3662 65.9112 84.2221 66.7763 83.6123 67.4401C83.7445 66.7012 83.9007 65.9653 84.0599 65.2294C84.1049 65.2264 84.147 65.2174 84.192 65.2053C84.3002 65.1573 84.4053 65.0972 84.5134 65.0431ZM82.0954 73.8471C82.3057 73.5137 82.5189 73.1893 82.7322 72.8589C82.8434 72.7808 82.9515 72.6997 83.0626 72.6216C82.7683 73.0421 82.4048 73.4266 82.0954 73.8471ZM83.2879 76.4484C83.4501 76.4123 83.6153 76.3763 83.7775 76.3402C83.4621 76.6586 83.1227 76.95 82.7562 77.2143C82.7382 77.1392 82.7262 77.0671 82.7232 76.9921C82.9094 76.8088 83.1017 76.6316 83.2879 76.4484ZM82.0954 77.6649C82.0624 77.6859 82.0293 77.7039 81.9963 77.722C82.0233 77.6949 82.0504 77.6679 82.0774 77.6409C82.0804 77.6499 82.0894 77.6559 82.0954 77.6649ZM79.9537 72.114C80.176 72.0959 80.3743 72.0148 80.5455 71.8737C80.7227 71.7025 80.9119 71.5433 81.0952 71.3781C80.6206 72.138 80.134 72.8919 79.6444 73.6429C79.2959 73.8862 78.9595 74.1385 78.6141 74.3848C79.0887 73.6489 79.5302 72.8889 79.9537 72.114ZM80.4043 74.541C80.0469 75.1988 79.6564 75.8386 79.2509 76.4634C79.1758 76.4784 79.1007 76.4904 79.0256 76.5054C79.4071 75.9137 79.7855 75.319 80.155 74.7212C80.2361 74.6611 80.3202 74.6011 80.4043 74.541ZM67.9177 86.2977C67.7495 86.2376 67.5813 86.1835 67.4131 86.1114C67.2599 86.0123 67.0557 85.757 67.1668 85.5407C68.8819 83.5492 71.1047 81.9993 73.2073 80.3172C72.1891 81.3986 71.1828 82.4949 70.2366 83.6363C68.903 84.6576 67.5963 85.6008 67.9177 86.2977ZM70.516 86.2556C69.9182 86.2316 69.3355 86.1234 68.7708 85.9252C69.2544 85.4746 69.8221 85.0631 70.3418 84.6336C71.4682 84.6726 72.4534 83.6213 73.4056 83.0807C75.352 81.5457 76.9109 79.6233 78.3077 77.5808C78.3768 77.5658 78.4459 77.5568 78.5149 77.5447C77.1152 79.4762 75.5533 81.2664 73.8231 82.9124C72.8168 84.0779 71.2519 84.943 70.516 86.2556ZM78.1034 79.332C77.9322 79.6864 77.6018 80.0979 77.3705 80.5215C77.1693 80.6476 76.965 80.7678 76.7638 80.8969C77.1573 80.4464 77.5447 79.9928 77.9202 79.5272C77.9773 79.4551 78.0343 79.386 78.0944 79.314C78.0974 79.32 78.1004 79.326 78.1034 79.332ZM75.0937 82.6992C75.2198 82.8133 75.367 82.8914 75.5322 82.9305C75.6734 82.9275 75.8146 82.9094 75.9528 82.8794C74.9675 83.8496 73.8892 84.7297 72.5856 85.1592C73.4416 84.3602 74.2767 83.5402 75.0937 82.6992ZM80.4283 82.594C78.9925 83.4862 77.4036 84.5014 75.7335 85.3034C76.5595 84.7507 77.3525 84.156 78.1185 83.6033C80.8999 81.8611 83.5042 79.7915 85.6308 77.2864C86.3157 78.512 87.376 76.2201 87.8115 75.7155C87.8626 76.0549 87.9467 76.2832 88.0549 76.4304C85.784 78.7703 83.1738 80.8098 80.4283 82.594ZM84.4023 75.373C84.988 74.8053 85.5677 74.2316 86.1625 73.6789C85.6759 74.1926 85.2133 74.7603 84.7327 75.313C84.6216 75.334 84.5134 75.352 84.4023 75.373ZM87.8326 71.1768C86.6611 72.8769 84.7657 74.0724 83.324 75.5923C83.3119 75.5953 83.2969 75.5983 83.2849 75.6013C84.9189 73.4116 86.5019 71.1948 88.0098 68.915C88.2471 68.7317 88.4754 68.5485 88.7007 68.3713C88.7728 68.6026 88.953 68.7528 89.2533 68.6086C88.7457 69.4526 88.2681 70.2817 87.8326 71.1768ZM89.3465 73.8111C89.4306 73.5407 89.5177 73.2704 89.6048 73.0031C90.3978 71.4772 91.2689 69.9993 92.215 68.5695C91.38 70.3808 90.4218 72.129 89.3465 73.8111ZM93.8311 67.9538C93.8371 67.9358 93.8461 67.9207 93.8551 67.9027C93.3985 68.951 92.8759 69.9633 92.2841 70.9395C93.8851 67.5152 95.1707 63.7515 94.618 63.4391C94.9184 62.547 99.0966 54.4129 96.8108 55.1608C97.1652 54.0855 97.4566 52.9921 97.6849 51.8807C97.9732 52.2412 98.3096 51.8597 98.2496 51.5233C98.2496 43.5273 97.751 34.7143 93.78 27.6134C93.804 27.5654 93.8251 27.5173 93.8491 27.4693C95.4891 29.5719 96.5825 31.9298 97.1232 34.5401C100.013 45.6209 98.595 57.6179 93.819 67.9718C93.8221 67.9658 93.8251 67.9598 93.8311 67.9538Z" fill="#1C2742"/>
</svg>
