<svg width="114" height="24" viewBox="0 0 114 24" fill="none" xmlns="http://www.w3.org/2000/svg">
<g clip-path="url(#clip0_72_5474)">
<path d="M31 23C37.0751 23 42 18.0751 42 12C42 5.92487 37.0751 1 31 1C24.9249 1 20 5.92487 20 12C20 18.0751 24.9249 23 31 23ZM31 13C31.5523 13 32 12.5523 32 12C32 11.4477 31.5523 11 31 11C30.4477 11 30 11.4477 30 12C30 12.5523 30.4477 13 31 13ZM31 15C32.6569 15 34 13.6569 34 12C34 10.3431 32.6569 9 31 9C29.3431 9 28 10.3431 28 12C28 13.6569 29.3431 15 31 15ZM31 17C33.7614 17 36 14.7614 36 12C36 9.23858 33.7614 7 31 7C28.2386 7 26 9.23858 26 12C26 14.7614 28.2386 17 31 17Z" stroke="black" stroke-width="2"/>
</g>
<circle cx="5" cy="12" r="5" fill="#BCB7CD"/>
<circle cx="57" cy="12" r="5" fill="#BCB7CD"/>
<circle cx="83" cy="12" r="5" fill="#BCB7CD"/>
<circle cx="109" cy="12" r="5" fill="#BCB7CD"/>
<defs>
<clipPath id="clip0_72_5474">
<rect width="24" height="24" fill="white" transform="translate(19)"/>
</clipPath>
</defs>
</svg>
