<svg width="127" height="24" viewBox="0 0 127 24" fill="none" xmlns="http://www.w3.org/2000/svg">
<g clip-path="url(#clip0_72_5475)">
<path d="M12 23C18.0751 23 23 18.0751 23 12C23 5.92487 18.0751 1 12 1C5.92487 1 1 5.92487 1 12C1 18.0751 5.92487 23 12 23ZM12 13C12.5523 13 13 12.5523 13 12C13 11.4477 12.5523 11 12 11C11.4477 11 11 11.4477 11 12C11 12.5523 11.4477 13 12 13ZM12 15C13.6569 15 15 13.6569 15 12C15 10.3431 13.6569 9 12 9C10.3431 9 9 10.3431 9 12C9 13.6569 10.3431 15 12 15ZM12 17C14.7614 17 17 14.7614 17 12C17 9.23858 14.7614 7 12 7C9.23858 7 7 9.23858 7 12C7 14.7614 9.23858 17 12 17Z" stroke="black" stroke-width="2"/>
</g>
<circle cx="45" cy="12" r="5" fill="#BCB7CD"/>
<circle cx="70" cy="12" r="5" fill="#BCB7CD"/>
<circle cx="96" cy="12" r="5" fill="#BCB7CD"/>
<circle cx="122" cy="12" r="5" fill="#BCB7CD"/>
<defs>
<clipPath id="clip0_72_5475">
<rect width="24" height="24" fill="white"/>
</clipPath>
</defs>
</svg>
